<?xml version="1.0" standalone="no"?>
  <!DOCTYPE svg PUBLIC "-//W3C//DTD SVG 1.1//EN" "http://www.w3.org/Graphics/SVG/1.1/DTD/svg11.dtd" >
  <svg>
  <metadata>
  Created by font-carrier
  </metadata>
  <defs>
  <font id="LabGrotesque-Regular" horiz-adv-x="1792" vert-adv-y="1792" >
    <font-face
      
      font-family="Lab Grotesque"
      
      font-weight="400"
      
      font-stretch="normal"
      
      units-per-em="1000"
      
      ascent="940"
      
      descent="-260"
      
    />
      <missing-glyph />

      

      
      <glyph glyph-name="uni21" unicode="&#x21;" d="M188 710L188 497L168 201L115 201L95 497L95 710L188 710M193 108L193 0L90 0L90 108L193 108Z"  horiz-adv-x="273" vert-adv-y="1000"  />

      
      <glyph glyph-name="uni22" unicode="&#x22;" d="M139 710L130 476L66 476L57 710L139 710M317 710L308 476L244 476L235 710L317 710Z"  horiz-adv-x="375" vert-adv-y="1000"  />

      
      <glyph glyph-name="uni23" unicode="&#x23;" d="M568 436L469 436L429 246L527 246L514 185L416 185L377 0L307 0L346 185L191 185L152 0L82 0L121 185L21 185L34 246L134 246L174 436L75 436L88 497L187 497L226 680L296 680L257 497L412 497L451 680L521 680L482 497L581 497L568 436M359 246L399 436L244 436L204 246L359 246Z"  horiz-adv-x="590" vert-adv-y="1000"  />

      
      <glyph glyph-name="uni24" unicode="&#x24;" d="M341-14L341-100L275-100L275-14Q208-9 152 18Q96 45 34 101L88 160Q188 73 275 63L275 323Q155 356 111 394Q67 432 67 508Q67 583 126.50 635Q186 687 275 695L275 780L341 780L341 694Q453 684 550 597L496 537Q420 608 341 618L341 387Q458 358 505.50 313.50Q553 269 553 189Q553 104 495 49Q436-7 341-14M275 405L275 619Q218 612 184.50 582.50Q151 553 151 510Q151 469 178.50 446.50Q206 424 275 405M468 186Q468 233 438.50 259.50Q409 286 341 305L341 63Q399 69 433.50 102Q468 135 468 186Z"  horiz-adv-x="610" vert-adv-y="1000"  />

      
      <glyph glyph-name="uni25" unicode="&#x25;" d="M642 695L696 662L220-15L167 19L642 695M801 150Q801 80 756.50 35Q712-10 646-10Q580-10 535.50 35Q491 80 491 150Q491 219 535.50 264Q580 309 646 309Q712 309 756.50 264Q801 219 801 150M557 150Q557 104 581 76Q605 48 646 48Q687 48 711 76Q735 104 735 150Q735 194 710.50 222.50Q686 251 646 251Q606 251 581.50 222.50Q557 194 557 150M367 532Q367 462 322.50 417Q278 372 212 372Q146 372 101.50 417Q57 462 57 532Q57 601 101.50 646Q146 691 212 691Q278 691 322.50 646Q367 601 367 532M123 532Q123 486 147 458Q171 430 212 430Q253 430 277 458Q301 486 301 532Q301 576 276.50 604.50Q252 633 212 633Q172 633 147.50 604.50Q123 576 123 532Z"  horiz-adv-x="858" vert-adv-y="1000"  />

      
      <glyph glyph-name="uni26" unicode="&#x26;" d="M692 0L586 0L500 100Q448 41 394.50 13Q341-15 269-15Q171-15 109 39Q47 93 47 175Q47 250 90 300Q133 351 235 409Q194 457 175.50 493.50Q157 530 157 570Q157 635 207.50 678.50Q258 722 331 722Q405 722 453 680Q501 638 501 576Q501 520 470 480Q440 440 357 390L500 223L602 350L664 305L552 163L692 0M239 569Q239 541 255 514.50Q271 488 309 445Q377 484 397 510Q421 538 421 576Q421 612 395 634.50Q369 657 330 657Q291 657 264.50 632.50Q238 608 239 569M449 160L282 355Q198 305 166 268Q134 230 134 181Q134 126 173 91.50Q212 57 273 57Q324 57 363 81Q402 105 449 160Z"  horiz-adv-x="699" vert-adv-y="1000"  />

      
      <glyph glyph-name="uni27" unicode="&#x27;" d="M139 710L130 476L66 476L57 710L139 710Z"  horiz-adv-x="196" vert-adv-y="1000"  />

      
      <glyph glyph-name="uni28" unicode="&#x28;" d="M275 783L330 737Q243 630 201 530Q159 430 159 307Q159 184 201 83Q244-15 330-123L275-169Q178-61 126 50Q74 161 74 307Q74 453 126 564Q178 675 275 783Z"  horiz-adv-x="337" vert-adv-y="1000"  />

      
      <glyph glyph-name="uni29" unicode="&#x29;" d="M62-168L7-122Q94-14 136 85Q178 186 178 308Q178 432 135 531Q94 630 7 738L62 784Q163 673 213.50 560Q264 447 264 308Q264 170 213.50 56.50Q163-57 62-168Z"  horiz-adv-x="337" vert-adv-y="1000"  />

      
      <glyph glyph-name="uni2a" unicode="&#x2a;" d="M247 710L247 576L371 618L389 567L261 526L345 418L300 384L216 495L136 386L90 421L175 526L47 568L64 619L188 576L188 710L247 710Z"  horiz-adv-x="436" vert-adv-y="1000"  />

      
      <glyph glyph-name="uni2b" unicode="&#x2b;" d="M338 570L338 347L560 347L560 273L338 273L338 50L262 50L262 273L40 273L40 347L262 347L262 570L338 570Z"  horiz-adv-x="600" vert-adv-y="1000"  />

      
      <glyph glyph-name="uni2c" unicode="&#x2c;" d="M165 108L165 0L104-125L52-125L107 0L57 0L57 108L165 108Z"  horiz-adv-x="216" vert-adv-y="1000"  />

      
      <glyph glyph-name="uni2d" unicode="&#x2d;" d="M348 326L348 249L57 249L57 326L348 326Z"  horiz-adv-x="405" vert-adv-y="1000"  />

      
      <glyph glyph-name="uni2e" unicode="&#x2e;" d="M159 108L159 0L57 0L57 108L159 108Z"  horiz-adv-x="216" vert-adv-y="1000"  />

      
      <glyph glyph-name="uni2f" unicode="&#x2f;" d="M416 710L106 0L22 0L332 710L416 710Z"  horiz-adv-x="438" vert-adv-y="1000"  />

      
      <glyph glyph-name="uni30" unicode="&#x30;" d="M502 570Q550 477 550 340Q550 203 502 110Q437-16 295-16Q153-16 88 110Q40 203 40 340Q40 477 88 570Q153 696 295 696Q437 696 502 570M166 532Q130 458 130 340Q130 222 166 148Q208 60 295 60Q382 60 424 148Q460 222 460 340Q460 458 424 532Q382 620 295 620Q208 620 166 532Z"  horiz-adv-x="590" vert-adv-y="1000"  />

      
      <glyph glyph-name="uni31" unicode="&#x31;" d="M243 680L310 680L310 0L222 0L222 568L78 466L34 527L243 680Z"  horiz-adv-x="460" vert-adv-y="1000"  />

      
      <glyph glyph-name="uni32" unicode="&#x32;" d="M131 75L527 75L527 0L41 0L41 33Q41 102 67 152Q94 202 133 233Q181 270 245 309L295 338Q347 368 372 385Q436 432 436 501Q436 557 399 588.50Q362 620 304 620Q246 620 203 592Q159 563 107 498L42 544Q147 696 302 696Q402 696 463.50 641.50Q525 587 525 504Q525 446 501 405Q478 365 441 338Q409 313 344 275L297 247L278 236Q230 207 201 186Q140 141 131 75Z"  horiz-adv-x="572" vert-adv-y="1000"  />

      
      <glyph glyph-name="uni33" unicode="&#x33;" d="M522 206Q522 118 457 51Q392-16 282-16Q155-16 30 68L75 133Q139 93 184 76.50Q229 60 279 60Q348 60 390.50 100.50Q433 141 433 205Q433 268 390 303.50Q347 339 270 339Q219 339 189 326L148 382L392 605L64 605L64 680L502 680L502 607L282 407L295 407Q394 407 458 353Q522 299 522 206Z"  horiz-adv-x="575" vert-adv-y="1000"  />

      
      <glyph glyph-name="uni34" unicode="&#x34;" d="M460 232L562 232L562 159L460 159L460 0L374 0L374 159L29 159L29 239L311 680L409 680L123 232L374 232L374 387L460 387L460 232Z"  horiz-adv-x="580" vert-adv-y="1000"  />

      
      <glyph glyph-name="uni35" unicode="&#x35;" d="M535 222Q535 125 467 54.50Q399-16 293-16Q221-16 164 4Q114 22 36 74L80 139Q151 92 190 77Q235 60 285 60Q356 60 401 105.50Q446 151 446 218Q446 285 405.50 325Q365 365 294 365Q210 365 155 311L78 319L108 680L503 680L503 605L183 605L166 394Q223 439 310 439Q410 439 472.50 378Q535 317 535 222Z"  horiz-adv-x="587" vert-adv-y="1000"  />

      
      <glyph glyph-name="uni36" unicode="&#x36;" d="M486 379Q486 379 517.50 346Q549 313 549 217Q549 121 481.50 53Q414-15 303-15Q187-15 119.50 59Q52 133 52 250Q52 354 104 445Q156 536 261 634L310 680L428 680L428 679L320 580Q208 478 163 384Q221 445 322 445Q423 445 486 379M460 216Q460 284 418.50 327.50Q377 371 307 371Q233 371 188 327.50Q143 284 143 216Q143 150 187 104Q231 60 303 60Q374 60 417 103.50Q460 147 460 216Z"  horiz-adv-x="589" vert-adv-y="1000"  />

      
      <glyph glyph-name="uni37" unicode="&#x37;" d="M24 680L512 680L512 616Q413 493 335 328Q257 162 235 0L139 0Q160 154 236 314Q312 476 410 606L24 606L24 680Z"  horiz-adv-x="535" vert-adv-y="1000"  />

      
      <glyph glyph-name="uni38" unicode="&#x38;" d="M550 187Q550 99 480.50 41.50Q411-16 294-16Q178-16 108.50 41.50Q39 99 39 187Q39 251 73 298.50Q107 346 169 369Q74 415 74 517Q74 597 135 646.50Q196 696 294 696Q393 696 454 646.50Q515 597 515 517Q515 415 419 369Q482 345 516 297.50Q550 250 550 187M159 515Q159 465 196.50 433Q234 401 294 401Q355 401 392.50 433Q430 465 430 515Q430 564 393 594.50Q356 625 294 625Q233 625 196 594.50Q159 564 159 515M460 192Q460 255 415.50 293Q371 331 294 331Q219 331 174 293Q129 255 129 192Q129 133 174 95.50Q219 58 294 58Q370 58 415 95.50Q460 133 460 192Z"  horiz-adv-x="589" vert-adv-y="1000"  />

      
      <glyph glyph-name="uni39" unicode="&#x39;" d="M537 430Q537 326 485 235Q433 144 328 46L279 0L162 0L162 1L270 100Q382 202 427 296Q369 235 267 235Q167 235 103.50 301.50Q40 368 40 463Q40 558 108 626.50Q176 695 286 695Q402 695 469.50 621Q537 547 537 430M446 464Q446 531 402 575Q358 620 286 620Q215 620 172 576.50Q129 533 129 464Q129 396 171 352.50Q213 309 283 309Q357 309 401 353Q446 396 446 464Z"  horiz-adv-x="589" vert-adv-y="1000"  />

      
      <glyph glyph-name="uni3a" unicode="&#x3a;" d="M179 492L179 384L77 384L77 492L179 492M179 108L179 0L77 0L77 108L179 108Z"  horiz-adv-x="256" vert-adv-y="1000"  />

      
      <glyph glyph-name="uni3b" unicode="&#x3b;" d="M189 108L189 0L128-125L76-125L131 0L81 0L81 108L189 108M186 492L186 384L84 384L84 492L186 492Z"  horiz-adv-x="256" vert-adv-y="1000"  />

      
      <glyph glyph-name="uni3c" unicode="&#x3c;" d="M540 529L540 449L156 310L540 171L540 91L60 271L60 349L540 529Z"  horiz-adv-x="600" vert-adv-y="1000"  />

      
      <glyph glyph-name="uni3d" unicode="&#x3d;" d="M560 447L560 373L40 373L40 447L560 447M560 247L560 173L40 173L40 247L560 247Z"  horiz-adv-x="600" vert-adv-y="1000"  />

      
      <glyph glyph-name="uni3e" unicode="&#x3e;" d="M60 529L540 349L540 271L60 91L60 171L444 310L60 449L60 529Z"  horiz-adv-x="600" vert-adv-y="1000"  />

      
      <glyph glyph-name="uni3f" unicode="&#x3f;" d="M474 546Q474 506 459 475Q445 446 424.50 423Q404 400 365 367L342 346Q300 310 282 285Q265 262 262 225L259 196L188 196L188 232Q189 292 204.50 320Q220 348 280 402L298 417Q346 456 364.50 482.50Q383 509 383 544Q383 591 349 618.50Q315 646 258 646Q213 646 173.50 627.50Q134 609 79 564L27 623Q142 726 260 726Q351 726 412.50 677.50Q474 629 474 546M276 108L276 0L174 0L174 108L276 108Z"  horiz-adv-x="491" vert-adv-y="1000"  />

      
      <glyph glyph-name="uni40" unicode="&#x40;" d="M695 460L639 198Q632 170 632 146Q632 73 705 73Q760 73 795.50 130Q831 187 831 280Q831 440 733.50 529.50Q636 619 486 619Q324 621 220.50 511Q117 401 119 235Q119 71 220-29.50Q321-130 502-130L720-130L720-190L485-190Q285-191 165-72Q45 47 47 237Q45 429 167 556Q289 683 482 681Q665 683 783.50 571.50Q902 460 900 283Q900 163 844.50 89.50Q789 16 700 16Q640 16 607.50 42.50Q575 69 568 112Q507 16 401 16Q330 16 291 57.50Q252 99 252 172Q251 242 280.50 310.50Q310 379 366 424.50Q422 470 488 468Q590 468 610 390L623 460L695 460M578 311Q578 359 558 382.50Q538 406 494 406Q425 408 376.50 334.50Q328 261 329 178Q329 130 350.50 104.50Q372 79 411 79Q463 77 503 119Q543 161 561 213.50Q579 266 578 311Z"  horiz-adv-x="947" vert-adv-y="1000"  />

      
      <glyph glyph-name="uni41" unicode="&#x41;" d="M558 0L494 181L174 181L110 0L17 0L274 710L395 710L653 0L558 0M202 259L466 259L433 352Q366 531 333 641Q308 556 246 383L235 351L202 259Z"  horiz-adv-x="669" vert-adv-y="1000"  />

      
      <glyph glyph-name="uni42" unicode="&#x42;" d="M628 199Q628 107 568.50 53.50Q509 0 410 0L82 0L82 710L395 710Q490 710 546.50 662.50Q603 615 603 530Q603 473 573.50 433Q544 393 492 375Q556 356 592 311Q628 266 628 199M174 636L174 409L376 409Q441 409 477 439.50Q513 470 513 525Q513 579 477.50 607.50Q442 636 377 636L174 636M536 204Q536 264 494.50 299.50Q453 335 381 335L174 335L174 74L381 74Q455 74 495.50 108.50Q536 143 536 204Z"  horiz-adv-x="667" vert-adv-y="1000"  />

      
      <glyph glyph-name="uni43" unicode="&#x43;" d="M636 625L582 561Q482 645 384 645Q271 645 203 564.50Q135 484 135 355Q135 228 202.50 146.50Q270 65 378 65Q436 65 483.50 88.50Q531 112 592 169L649 107Q579 41 517.50 12.50Q456-16 379-16Q226-16 134 88Q42 192 42 356Q42 520 134 623Q226 726 384 726Q455 726 514 702.50Q573 679 636 625Z"  horiz-adv-x="669" vert-adv-y="1000"  />

      
      <glyph glyph-name="uni44" unicode="&#x44;" d="M577.50 612.50Q577.50 612.50 619.25 563.75Q661 515 661 355Q661 195 577.50 97.50Q494 0 347 0L82 0L82 710L347 710Q494 710 577.50 612.50M332 633L174 633L174 77L332 77Q444 77 505.50 150.50Q567 224 567 355Q567 485 505 559Q443 633 332 633Z"  horiz-adv-x="703" vert-adv-y="1000"  />

      
      <glyph glyph-name="uni45" unicode="&#x45;" d="M554 710L554 633L174 633L174 404L528 404L528 327L174 327L174 77L563 77L563 0L82 0L82 710L554 710Z"  horiz-adv-x="609" vert-adv-y="1000"  />

      
      <glyph glyph-name="uni46" unicode="&#x46;" d="M554 710L554 633L174 633L174 389L525 389L525 312L174 312L174 0L82 0L82 710L554 710Z"  horiz-adv-x="594" vert-adv-y="1000"  />

      
      <glyph glyph-name="uni47" unicode="&#x47;" d="M362 294L362 372L675 372L675 0L603 0L596 90Q530-15 375-15Q220-15 131 87Q42 189 42 355Q42 519 135 622Q228 725 386 725Q471 725 540 692.50Q609 660 676 590L617 530Q554 593 503 618Q451 644 384 644Q273 644 204 564Q135 484 135 355Q135 223 201.50 144Q268 65 380 65Q474 65 532 119Q590 173 590 266L590 294L362 294Z"  horiz-adv-x="741" vert-adv-y="1000"  />

      
      <glyph glyph-name="uni48" unicode="&#x48;" d="M647 710L647 0L554 0L554 330L174 330L174 0L82 0L82 710L174 710L174 407L554 407L554 710L647 710Z"  horiz-adv-x="729" vert-adv-y="1000"  />

      
      <glyph glyph-name="uni49" unicode="&#x49;" d="M181 710L181 0L89 0L89 710L181 710Z"  horiz-adv-x="270" vert-adv-y="1000"  />

      
      <glyph glyph-name="uni4a" unicode="&#x4a;" d="M385 710L385 183Q385-12 193-12Q101-12 12 35L44 107Q134 69 190 69Q293 69 293 191L293 710L385 710Z"  horiz-adv-x="462" vert-adv-y="1000"  />

      
      <glyph glyph-name="uni4b" unicode="&#x4b;" d="M544 0L301 366L174 235L174 0L82 0L82 710L174 710L174 347L520 710L635 710L364 430L649 0L544 0Z"  horiz-adv-x="658" vert-adv-y="1000"  />

      
      <glyph glyph-name="uni4c" unicode="&#x4c;" d="M174 710L174 78L518 78L518 0L82 0L82 710L174 710Z"  horiz-adv-x="545" vert-adv-y="1000"  />

      
      <glyph glyph-name="uni4d" unicode="&#x4d;" d="M641 710L788 710L788 0L698 0L698 355Q698 502 701 644Q682 583 642 476L600 355L476 0L395 0L268 355Q201 541 167 642Q170 500 170 354L170 0L82 0L82 710L229 710L341 397Q413 195 436 112Q469 222 530 397L641 710Z"  horiz-adv-x="870" vert-adv-y="1000"  />

      
      <glyph glyph-name="uni4e" unicode="&#x4e;" d="M560 710L650 710L650 0L548 0L338 323Q230 485 167 594Q172 432 172 319L172 0L82 0L82 710L185 710L398 382L424 342Q529 178 565 117Q560 275 560 386L560 710Z"  horiz-adv-x="732" vert-adv-y="1000"  />

      
      <glyph glyph-name="uni4f" unicode="&#x4f;" d="M624 621.50Q624 621.50 670 569.25Q716 517 716 355Q716 193 624 88.50Q532-16 379-16Q226-16 134 88.50Q42 193 42 355Q42 517 134 621.50Q226 726 379 726Q532 726 624 621.50M136 355Q136 227 203.50 146Q271 65 379 65Q488 65 555 145.50Q622 226 622 355Q622 483 555 564Q488 645 379 645Q271 645 203.50 563.50Q136 482 136 355Z"  horiz-adv-x="758" vert-adv-y="1000"  />

      
      <glyph glyph-name="uni50" unicode="&#x50;" d="M618 498Q618 398 554 341Q490 285 387 285L174 285L174 0L82 0L82 710L387 710Q493 710 555.50 653.50Q618 597 618 498M374 633L174 633L174 362L374 362Q446 362 486 397.50Q526 433 526 498Q526 563 486 598Q446 633 374 633Z"  horiz-adv-x="651" vert-adv-y="1000"  />

      
      <glyph glyph-name="uni51" unicode="&#x51;" d="M598 62L659-19L592-66L530 17Q461-16 379-16Q226-16 134 88.50Q42 193 42 355Q42 517 134 621.50Q226 726 379 726Q532 726 624 621.50Q716 517 716 355Q716 163 598 62M478 86L384 210L450 257L544 133Q622 211 622 355Q622 483 555 564Q488 645 379 645Q271 645 203.50 563.50Q136 482 136 355Q136 227 203.50 146Q271 65 379 65Q433 65 478 86Z"  horiz-adv-x="758" vert-adv-y="1000"  />

      
      <glyph glyph-name="uni52" unicode="&#x52;" d="M635 0L530 0L340 285L174 285L174 0L82 0L82 710L380 710Q482 710 546 653Q610 596 610 498Q610 415 564.50 360.50Q519 306 440 291L635 0M174 633L174 362L365 362Q437 362 478 397.50Q519 433 519 498Q519 563 478 598Q437 633 364 633L174 633Z"  horiz-adv-x="668" vert-adv-y="1000"  />

      
      <glyph glyph-name="uni53" unicode="&#x53;" d="M576 621L522 557Q466 606 417.50 626Q369 646 308 646Q236 646 190.50 613.50Q145 581 145 530Q145 494 166 472Q186 452 222.50 439.50Q259 427 340 408Q476 377 531 332.50Q586 288 586 204Q586 106 512.50 45Q439-16 324-16Q239-16 171 12Q103 40 25 107L80 172Q156 108 209 86Q263 64 325 64Q400 64 447 100.50Q494 137 494 199Q494 240 471 263Q450 286 410 300Q366 316 296 331Q158 362 106.50 403.50Q55 445 55 528Q55 614 128 669.50Q201 725 308 725Q388 725 450 700.50Q512 676 576 621Z"  horiz-adv-x="629" vert-adv-y="1000"  />

      
      <glyph glyph-name="uni54" unicode="&#x54;" d="M572 710L572 632L348 632L348 0L255 0L255 632L31 632L31 710L572 710Z"  horiz-adv-x="603" vert-adv-y="1000"  />

      
      <glyph glyph-name="uni55" unicode="&#x55;" d="M612 710L612 226Q612 108 544 46.50Q476-15 344-15Q213-15 145 46.50Q77 108 77 226L77 710L169 710L169 231Q169 150 213.50 108Q258 66 344 66Q430 66 474.50 108Q519 150 519 231L519 710L612 710Z"  horiz-adv-x="688" vert-adv-y="1000"  />

      
      <glyph glyph-name="uni56" unicode="&#x56;" d="M521 710L616 710L375 0L258 0L17 710L113 710L230 358Q285 197 318 81Q347 181 404 357L521 710Z"  horiz-adv-x="633" vert-adv-y="1000"  />

      
      <glyph glyph-name="uni57" unicode="&#x57;" d="M816 710L907 710L736 0L623 0L536 326Q492 492 470 591Q450 494 405 325L317 0L203 0L31 710L125 710L206 368Q232 254 264 95Q306 268 333 368L426 710L519 710L610 368Q652 204 677 95Q704 233 736 368L816 710Z"  horiz-adv-x="939" vert-adv-y="1000"  />

      
      <glyph glyph-name="uni58" unicode="&#x58;" d="M631 0L527 0L321 307L115 0L11 0L266 373L36 710L139 710L323 437L505 710L608 710L378 373L631 0Z"  horiz-adv-x="643" vert-adv-y="1000"  />

      
      <glyph glyph-name="uni59" unicode="&#x59;" d="M509 710L609 710L357 303L357 0L265 0L265 304L15 710L117 710L313 385L509 710Z"  horiz-adv-x="624" vert-adv-y="1000"  />

      
      <glyph glyph-name="uni5a" unicode="&#x5a;" d="M581 710L581 636L150 77L580 77L580 0L41 0L41 74L472 633L60 633L60 710L581 710Z"  horiz-adv-x="623" vert-adv-y="1000"  />

      
      <glyph glyph-name="uni5b" unicode="&#x5b;" d="M291 759L291 695L179 695L179-79L291-79L291-142L97-142L97 759L291 759Z"  horiz-adv-x="328" vert-adv-y="1000"  />

      
      <glyph glyph-name="uni5c" unicode="&#x5c;" d="M22 710L106 710L416 0L332 0L22 710Z"  horiz-adv-x="438" vert-adv-y="1000"  />

      
      <glyph glyph-name="uni5d" unicode="&#x5d;" d="M37 759L231 759L231-142L37-142L37-79L148-79L148 695L37 695L37 759Z"  horiz-adv-x="328" vert-adv-y="1000"  />

      
      <glyph glyph-name="uni5e" unicode="&#x5e;" d="M335 710L534 280L458 280L295 633L133 280L56 280L256 710L335 710Z"  horiz-adv-x="590" vert-adv-y="1000"  />

      
      <glyph glyph-name="uni5f" unicode="&#x5f;" d="M605-130L605-190L-5-190L-5-130L605-130Z"  horiz-adv-x="600" vert-adv-y="1000"  />

      
      <glyph glyph-name="uni60" unicode="&#x60;" d="M57 706L153 706L225 565L149 565L57 706Z"  horiz-adv-x="282" vert-adv-y="1000"  />

      
      <glyph glyph-name="uni61" unicode="&#x61;" d="M466 342L466 0L388 0L388 61Q336-16 221-16Q140-16 92.50 19Q45 54 45 122Q45 201 104 237Q165 274 274 293L384 313L384 338Q384 383 352.50 409Q321 435 269 435Q224 435 188.50 416.50Q153 398 107 352L52 401Q141 506 266 506Q360 506 413 461.50Q466 417 466 342M384 184L384 249L294 231Q202 212 167.50 192Q133 172 129 125Q129 91 155.50 73Q182 55 230 55Q297 55 340.50 90.50Q384 126 384 184Z"  horiz-adv-x="532" vert-adv-y="1000"  />

      
      <glyph glyph-name="uni62" unicode="&#x62;" d="M472.50 433Q472.50 433 502.75 397Q533 361 533 246Q533 131 471.50 59Q410-13 316-13Q200-13 148 74L148 0L67 0L67 710L153 710L153 423Q207 505 316 505Q412 505 472.50 433M445 246Q445 330 406 381Q367 432 303 432Q234 432 192 381.50Q150 331 150 246Q150 161 192 111Q234 61 303 61Q367 61 406 112Q445 163 445 246Z"  horiz-adv-x="572" vert-adv-y="1000"  />

      
      <glyph glyph-name="uni63" unicode="&#x63;" d="M275 434Q205 434 165 379.50Q125 325 125 246Q125 168 164 113Q204 59 276 59Q316 59 348.50 76.50Q381 94 423 141L480 93Q433 34 386 10Q339-14 276-14Q168-14 102.50 57Q37 128 37 246Q37 363 103.50 434.50Q170 506 276 506Q337 506 382.50 485Q428 464 473 413L417 360Q379 401 346.50 417.50Q314 434 275 434Z"  horiz-adv-x="500" vert-adv-y="1000"  />

      
      <glyph glyph-name="uni64" unicode="&#x64;" d="M419 710L505 710L505 0L424 0L424 76Q369-13 256-13Q161-13 100 59Q39 131 39 246Q39 361 101 433Q163 505 258 505Q365 505 419 426L419 710M380 110.50Q380 110.50 401 135.75Q422 161 422 246Q422 331 380 381Q338 431 269 431Q205 431 166 380Q127 329 127 246Q127 162 165.50 111Q204 60 269 60Q338 60 380 110.50Z"  horiz-adv-x="572" vert-adv-y="1000"  />

      
      <glyph glyph-name="uni65" unicode="&#x65;" d="M444 140L495 88Q442 32 393 9Q344-14 281-14Q170-14 103.50 56.50Q37 127 37 243Q37 359 101.50 432.50Q166 506 272 506Q377 506 435.50 443Q494 380 494 269Q494 255 492 231L123 231Q127 153 168 105.50Q209 58 282 58Q328 58 361 76Q394 93 444 140M125 295L409 295Q406 361 369.50 399Q333 437 271 437Q211 437 173 400Q135 363 125 295Z"  horiz-adv-x="534" vert-adv-y="1000"  />

      
      <glyph glyph-name="uni66" unicode="&#x66;" d="M195 564L195 492L319 492L319 427L195 427L195 0L109 0L109 427L18 427L18 492L109 492L109 574Q109 647 147 686.50Q185 726 257 726Q303 726 356 709L339 643Q293 654 271 654Q230 654 212.50 633.50Q195 613 195 564Z"  horiz-adv-x="339" vert-adv-y="1000"  />

      
      <glyph glyph-name="uni67" unicode="&#x67;" d="M418 492L498 492L498 11Q498-84 438-138.50Q378-193 275-193Q155-193 52-120L95-57Q149-91 189-105.50Q229-120 274-120Q339-120 376-85.50Q413-51 413 18L413 85Q361 6 256 6Q162 6 101 76.50Q40 147 40 256Q40 365 101 435.50Q162 506 256 506Q366 506 418 419L418 492M375 128.50Q375 128.50 395 153.25Q415 178 415 256Q415 334 375 383.50Q335 433 270 433Q205 433 166.50 384.50Q128 336 128 256Q128 176 166.50 127.50Q205 79 270 79Q335 79 375 128.50Z"  horiz-adv-x="565" vert-adv-y="1000"  />

      
      <glyph glyph-name="uni68" unicode="&#x68;" d="M479 337L479 0L393 0L393 310Q393 370 364 401.50Q335 433 280 433Q227 433 190 396Q153 360 153 305L153 0L67 0L67 710L153 710L153 436Q204 506 303 506Q386 506 432.50 459Q479 412 479 337Z"  horiz-adv-x="545" vert-adv-y="1000"  />

      
      <glyph glyph-name="uni69" unicode="&#x69;" d="M153 492L153 0L67 0L67 492L153 492M153 692L153 589L67 589L67 692L153 692Z"  horiz-adv-x="220" vert-adv-y="1000"  />

      
      <glyph glyph-name="uni6a" unicode="&#x6a;" d="M7-121Q42-121 56-101.50Q70-82 70-38L70 492L156 492L156-38Q156-192 17-192Q-30-192-78-177L-61-111Q-25-121 7-121M156 692L156 589L70 589L70 692L156 692Z"  horiz-adv-x="224" vert-adv-y="1000"  />

      
      <glyph glyph-name="uni6b" unicode="&#x6b;" d="M406 0L242 247L153 158L153 0L67 0L67 710L153 710L153 253L382 492L487 492L300 302L502 0L406 0Z"  horiz-adv-x="508" vert-adv-y="1000"  />

      
      <glyph glyph-name="uni6c" unicode="&#x6c;" d="M156 710L156 0L70 0L70 710L156 710Z"  horiz-adv-x="226" vert-adv-y="1000"  />

      
      <glyph glyph-name="uni6d" unicode="&#x6d;" d="M746 343L746 0L660 0L660 319Q660 433 562 433Q511 433 480 398.50Q449 364 449 309L449 0L363 0L363 319Q363 433 265 433Q216 433 184.50 399Q153 365 153 309L153 0L67 0L67 492L148 492L148 433Q193 506 289 506Q390 506 431 426Q482 506 582 506Q661 506 703.50 461.50Q746 417 746 343Z"  horiz-adv-x="812" vert-adv-y="1000"  />

      
      <glyph glyph-name="uni6e" unicode="&#x6e;" d="M479 337L479 0L393 0L393 310Q393 370 364 401.50Q335 433 280 433Q227 433 190 396Q153 360 153 305L153 0L67 0L67 492L148 492L148 429Q196 506 303 506Q387 506 433 459Q479 412 479 337Z"  horiz-adv-x="545" vert-adv-y="1000"  />

      
      <glyph glyph-name="uni6f" unicode="&#x6f;" d="M456 433.50Q456 433.50 490 397.25Q524 361 524 246Q524 131 456 58.50Q388-14 281-14Q174-14 105.50 58.50Q37 131 37 246Q37 361 105.50 433.50Q174 506 281 506Q388 506 456 433.50M167.50 382Q167.50 382 146.25 356Q125 330 125 246Q125 162 167.50 110Q210 58 281 58Q352 58 394 109.50Q436 161 436 246Q436 331 394 382.50Q352 434 281 434Q210 434 167.50 382Z"  horiz-adv-x="561" vert-adv-y="1000"  />

      
      <glyph glyph-name="uni70" unicode="&#x70;" d="M533 247Q533 131 472 59Q411-13 316-13Q205-13 153 66L153-180L67-180L67 492L148 492L148 416Q203 505 316 505Q411 505 472 433Q533 361 533 247M406 112Q406 112 425.50 137.50Q445 163 445 247Q445 331 406.50 381.50Q368 432 303 432Q234 432 192 382Q150 332 150 247Q150 161 192 111Q234 61 303 61Q367 61 406 112Z"  horiz-adv-x="572" vert-adv-y="1000"  />

      
      <glyph glyph-name="uni71" unicode="&#x71;" d="M424 492L505 492L505-180L419-180L419 67Q366-13 257-13Q162-13 100.50 59Q39 131 39 246Q39 361 100.50 433Q162 505 257 505Q370 505 424 418L424 492M422 246Q422 332 380 381.50Q338 431 269 431Q205 431 166 380Q127 329 127 246Q127 162 166 111Q205 60 269 60Q338 60 380 110.50Q422 161 422 246Z"  horiz-adv-x="572" vert-adv-y="1000"  />

      
      <glyph glyph-name="uni72" unicode="&#x72;" d="M348 483L332 411Q298 421 268 421Q216 421 184.50 378.50Q153 336 153 264L153 0L67 0L67 492L148 492L148 418Q187 498 270 498Q308 498 348 483Z"  horiz-adv-x="358" vert-adv-y="1000"  />

      
      <glyph glyph-name="uni73" unicode="&#x73;" d="M437 434L390 376Q345 411 311.50 423.50Q278 436 235 436Q186 436 156.50 415.50Q127 395 127 363Q131 332 153 320.50Q175 309 259 290Q361 266 403 233.50Q445 201 445 139Q445 70 391 28Q337-14 248-14Q181-14 129.50 6.50Q78 27 21 78L72 134Q126 89 164 73Q202 57 249 57Q298 57 329.50 78Q361 99 361 135Q361 170 331 187Q301 204 223 221Q118 245 82 271.50Q46 298 44 360Q44 425 97 465.50Q150 506 235 506Q296 506 342 489.50Q388 473 437 434Z"  horiz-adv-x="479" vert-adv-y="1000"  />

      
      <glyph glyph-name="uni74" unicode="&#x74;" d="M325 76L338 8Q290-9 237-9Q170-9 140 21.50Q110 52 110 114L110 427L18 427L18 492L110 492L110 657L196 657L196 492L329 492L329 427L196 427L196 124Q196 91 209.50 77.50Q223 64 254 64Q282 64 325 76Z"  horiz-adv-x="356" vert-adv-y="1000"  />

      
      <glyph glyph-name="uni75" unicode="&#x75;" d="M384 492L470 492L470 0L390 0L390 61Q345-14 241-14Q154-14 110 29Q66 72 66 147L66 492L152 492L152 168Q152 60 255 60Q313 60 348.50 95Q384 130 384 192L384 492Z"  horiz-adv-x="537" vert-adv-y="1000"  />

      
      <glyph glyph-name="uni76" unicode="&#x76;" d="M377 492L465 492L294 0L185 0L15 492L105 492L166 311Q219 147 241 69Q263 147 316 311L377 492Z"  horiz-adv-x="480" vert-adv-y="1000"  />

      
      <glyph glyph-name="uni77" unicode="&#x77;" d="M626 492L714 492L576 0L472 0L426 157Q389 287 366 389Q337 267 306 156L263 0L159 0L21 492L110 492L159 308Q176 244 215 75Q243 191 275 308L327 492L408 492L460 308Q496 180 520 73Q550 206 577 308L626 492Z"  horiz-adv-x="735" vert-adv-y="1000"  />

      
      <glyph glyph-name="uni78" unicode="&#x78;" d="M468 0L373 0L240 198L106 0L12 0L191 257L27 492L122 492L241 317L358 492L452 492L291 261L468 0Z"  horiz-adv-x="480" vert-adv-y="1000"  />

      
      <glyph glyph-name="uni79" unicode="&#x79;" d="M379 492L466 492L269-68Q244-138 213-165.50Q182-193 121-193Q78-193 45-183L60-117Q87-123 113-123Q144-123 162.50-106Q181-89 196-45L202-26L17 492L108 492L163 329Q185 265 236 111L244 86L274 177L324 331L379 492Z"  horiz-adv-x="484" vert-adv-y="1000"  />

      
      <glyph glyph-name="uni7a" unicode="&#x7a;" d="M434 492L434 429L145 71L434 71L434 0L38 0L38 64L329 422L56 422L56 492L434 492Z"  horiz-adv-x="478" vert-adv-y="1000"  />

      
      <glyph glyph-name="uni7b" unicode="&#x7b;" d="M329 759L329 695L295 695Q259 695 245 684Q230 673 229 657Q227 635 227 590L227 437Q227 380 206.50 350.50Q186 321 133 312L133 310Q186 301 206.50 271.50Q227 242 227 185L227 26L227-18Q227-54 242.50-66.50Q258-79 295-79L329-79L329-142L276-142Q201-142 172.50-111Q144-80 144 10L144 172Q144 227 123 248.50Q102 270 50 270L50 352Q102 352 123 373.50Q144 395 144 450L144 607Q144 697 172.50 728Q201 759 276 759L329 759Z"  horiz-adv-x="366" vert-adv-y="1000"  />

      
      <glyph glyph-name="uni7c" unicode="&#x7c;" d="M230 800L230-140L154-140L154 800L230 800Z"  horiz-adv-x="383" vert-adv-y="1000"  />

      
      <glyph glyph-name="uni7d" unicode="&#x7d;" d="M37 759L90 759Q165 759 193.50 728Q222 697 222 607L222 450Q222 395 243 373.50Q264 352 316 352L316 270Q264 270 243 248.50Q222 227 222 172L222 10Q222-80 193.50-111Q165-142 90-142L37-142L37-79L72-79Q108-79 122-68Q137-57 138-41Q140-19 140 26L140 185Q140 242 160.50 271.50Q181 301 234 310L234 312Q181 321 160.50 350.50Q140 380 140 437L140 590L140 634Q140 670 124.50 682.50Q109 695 72 695L37 695L37 759Z"  horiz-adv-x="366" vert-adv-y="1000"  />

      
      <glyph glyph-name="uni7e" unicode="&#x7e;" d="M318 372Q385 346 413 346Q442 346 455.50 359Q469 372 471 399L543 399Q541 342 509 308.50Q477 275 421 275Q379 275 301 306Q230 334 198 334Q169 334 150.50 319Q132 304 129 280L57 280Q59 335 96 369Q133 403 195 403Q242 403 318 372Z"  horiz-adv-x="600" vert-adv-y="1000"  />

      
      <glyph glyph-name="unia1" unicode="&#xa1;" d="M62 385L62 493L164 493L164 385L62 385M66-217L66-4L87 292L140 292L160-4L160-217L66-217Z"  horiz-adv-x="225" vert-adv-y="1000"  />

      
      <glyph glyph-name="unia2" unicode="&#xa2;" d="M347-12L347-100L280-100L280-12Q184-1 128 67Q72 138 72 246Q72 353 128 423Q185 493 280 504L280 595L347 595L347 504Q438 494 508 412L452 360Q398 419 347 430L347 63Q397 74 458 141L515 93Q474 43 434.50 18.50Q395-6 347-12M280 62L280 431Q224 420 192 368.50Q160 317 160 246Q160 176 192 125Q224 74 280 62Z"  horiz-adv-x="590" vert-adv-y="1000"  />

      
      <glyph glyph-name="unia3" unicode="&#xa3;" d="M528 100L559 32Q487-13 414-13Q364-13 286 7Q216 24 179 24Q140 24 119 17Q93 8 65-5L38 65Q105 91 137.50 123.50Q170 156 171 215Q171 253 165 283L67 283L67 350L147 350Q120 431 120 502Q120 589 181.50 641Q243 693 333 693Q449 693 545 614L496 551Q449 587 412 602Q375 617 334 617Q279 617 244.50 585Q210 553 210 500Q210 458 216 427Q222 401 237 350L453 350L453 283L253 283Q257 262 257 225Q255 141 188 95Q233 94 299 77Q372 62 408 62Q460 62 528 100Z"  horiz-adv-x="590" vert-adv-y="1000"  />

      
      <glyph glyph-name="unia4" unicode="&#xa4;" d="M486 575L530 532L464 466Q505 411 505 340Q505 269 464 214L529 149L485 106L419 172Q367 138 297 138Q226 138 173 174L104 105L61 148L129 216Q89 268 89 340Q89 410 128 463L60 531L104 574L172 505Q224 542 297 542Q366 542 418 508L486 575M197 439.50Q197 439.50 177.50 420.75Q158 402 158 340Q158 278 197 240.50Q236 203 297 203Q358 203 397 240.50Q436 278 436 340Q436 402 397 439.50Q358 477 297 477Q236 477 197 439.50Z"  horiz-adv-x="590" vert-adv-y="1000"  />

      
      <glyph glyph-name="unia5" unicode="&#xa5;" d="M557 680L401 412L522 412L522 348L364 348L338 303L338 256L522 256L522 192L338 192L338 0L250 0L250 192L68 192L68 256L250 256L250 304L225 348L68 348L68 412L188 412L33 680L131 680L297 383L462 680L557 680Z"  horiz-adv-x="590" vert-adv-y="1000"  />

      
      <glyph glyph-name="unia6" unicode="&#xa6;" d="M230 800L230 400L154 400L154 800L230 800M230 260L230-140L154-140L154 260L230 260Z"  horiz-adv-x="383" vert-adv-y="1000"  />

      
      <glyph glyph-name="unia7" unicode="&#xa7;" d="M508 84Q508 14 448.50-30.50Q389-75 297-75Q229-75 177.50-57Q126-39 71 4L117 63Q169 23 208 9Q246-4 297-4Q354-4 390 20Q426 44 426 81Q426 105 409 119Q394 133 367.50 141.50Q341 150 271 166Q153 191 102.50 228Q52 265 52 330Q52 416 149 455Q82 489 82 565Q82 635 141.50 679.50Q201 724 293 724Q361 724 412.50 706Q464 688 519 645L473 586Q420 626 381 639Q341 653 293 653Q236 653 200 628.50Q164 604 164 567Q164 542 180 529Q204 509 319 482Q437 457 487.50 420.50Q538 384 538 319Q538 231 441 194Q508 160 508 84M307 234L340 227Q454 247 454 315Q454 344 432 362Q399 390 283 413Q264 418 247 421Q136 400 136 334Q136 304 158 286Q179 269 210.50 258.50Q242 248 307 234Z"  horiz-adv-x="590" vert-adv-y="1000"  />

      
      <glyph glyph-name="unia8" unicode="&#xa8;" d="M141 692L141 589L57 589L57 692L141 692M318 692L318 589L234 589L234 692L318 692Z"  horiz-adv-x="375" vert-adv-y="1000"  />

      
      <glyph glyph-name="unia9" unicode="&#xa9;" d="M60 355Q58 509 166.50 617.50Q275 726 428 723Q581 726 689.50 617.50Q798 509 796 355Q798 201 689.50 92.50Q581-16 428-13Q275-16 166.50 92.50Q58 201 60 355M734 355Q736 487 646.50 579.50Q557 672 428 670Q299 672 209.50 579.50Q120 487 122 355Q120 223 209.50 130.50Q299 38 428 40Q557 38 646.50 130.50Q736 223 734 355M282 197Q282 197 253 228.50Q224 260 224 355Q224 450 282 513Q340 576 432 576Q554 576 608 469L548 441Q525 481 498 498Q471 515 433 515Q371 515 333.50 470Q296 425 296 355Q296 285 333.50 240.50Q371 196 433 196Q475 196 500.50 214Q526 232 551 279L611 249Q580 188 538.50 161Q497 134 432 134Q340 134 282 197Z"  horiz-adv-x="856" vert-adv-y="1000"  />

      
      <glyph glyph-name="uniaa" unicode="&#xaa;" d="M364 588L364 328L301 328L301 377Q262 316 169 316Q110 316 73.50 343.50Q37 371 37 421Q37 477 80 506Q123 535 215 552L297 567L297 581Q297 618 273 638Q249 658 207 658Q144 658 85 596L41 636Q108 715 209 715Q283 715 323.50 681Q364 647 364 588M297 475L297 515L229 501Q158 486 131.50 471Q105 456 105 426Q105 401 124.50 387Q144 373 179 373Q232 373 264.50 400Q297 427 297 475Z"  horiz-adv-x="416" vert-adv-y="1000"  />

      
      <glyph glyph-name="uniab" unicode="&#xab;" d="M287 471L146 253L287 35L201 35L62 253L201 471L287 471M505 471L364 253L505 35L419 35L280 253L419 471L505 471Z"  horiz-adv-x="571" vert-adv-y="1000"  />

      
      <glyph glyph-name="uniac" unicode="&#xac;" d="M40 347L560 347L560 74L485 74L485 273L40 273L40 347Z"  horiz-adv-x="600" vert-adv-y="1000"  />

      
      <glyph glyph-name="uniae" unicode="&#xae;" d="M120.50 343.50Q120.50 343.50 88.75 375.25Q57 407 57 501Q57 595 120.50 658.50Q184 722 278 722Q372 722 435.50 658.50Q499 595 499 501Q499 407 435.50 343.50Q372 280 278 280Q184 280 120.50 343.50M405 370.50Q405 370.50 430.50 396.75Q456 423 456 501Q456 579 405 631.50Q354 684 278 684Q200 684 150 632Q100 580 100 501Q100 422 150 370Q200 318 278 318Q354 318 405 370.50M192 380L192 629L295 629Q330 629 352.50 606.50Q375 584 375 551Q375 499 326 480L387 380L337 380L281 475L238 475L238 380L192 380M238 513L286 513Q330 513 330 551Q330 588 286 588L238 588L238 513Z"  horiz-adv-x="556" vert-adv-y="1000"  />

      
      <glyph glyph-name="uniaf" unicode="&#xaf;" d="M336 660L336 594L57 594L57 660L336 660Z"  horiz-adv-x="393" vert-adv-y="1000"  />

      
      <glyph glyph-name="unib0" unicode="&#xb0;" d="M60 581Q60 641 101.50 681.50Q143 722 204 722Q265 722 306.50 681.50Q348 641 348 581Q348 520 306.50 479.50Q265 439 204 439Q143 439 101.50 479.50Q60 520 60 581M286 581Q286 617 263 640.50Q240 664 204 664Q167 664 144 640.50Q121 617 121 581Q121 544 144 520.50Q167 497 204 497Q240 497 263 520.50Q286 544 286 581Z"  horiz-adv-x="408" vert-adv-y="1000"  />

      
      <glyph glyph-name="unib1" unicode="&#xb1;" d="M338 662L338 439L560 439L560 365L338 365L338 142L262 142L262 365L40 365L40 439L262 439L262 662L338 662M560 74L560 0L40 0L40 74L560 74Z"  horiz-adv-x="600" vert-adv-y="1000"  />

      
      <glyph glyph-name="unib2" unicode="&#xb2;" d="M114 361L356 361L356 302L42 302L42 330Q42 388 73 425Q104 462 172 498L198 512Q248 538 267 555Q286 572 286 599Q286 628 264.50 643.50Q243 659 206 659Q150 659 88 604L48 650Q122 720 207 720Q275 720 316 686.50Q357 653 357 602Q357 568 342 542Q328 520 306 504Q284 488 239 464L211 449Q166 423 140 404Q118 387 114 361Z"  horiz-adv-x="397" vert-adv-y="1000"  />

      
      <glyph glyph-name="unib3" unicode="&#xb3;" d="M309.50 514Q309.50 514 329.25 497.50Q349 481 349 426Q349 371 307 331.50Q265 292 194 292Q114 292 30 344L65 394Q135 353 193 353Q232 353 255 373Q278 393 278 426Q278 458 253.50 477Q229 496 186 496Q149 496 134 489L103 532L248 651L49 651L49 710L334 710L334 652L205 547L209 547Q270 547 309.50 514Z"  horiz-adv-x="393" vert-adv-y="1000"  />

      
      <glyph glyph-name="unib4" unicode="&#xb4;" d="M225 706L133 565L57 565L129 706L225 706Z"  horiz-adv-x="282" vert-adv-y="1000"  />

      
      <glyph glyph-name="unib5" unicode="&#xb5;" d="M385 492L472 492L472 0L393 0L393 68Q350-14 255-14Q188-14 154 20L154-183L67-183L67 492L154 492L154 168Q154 61 262 61Q317 61 351 95.50Q385 130 385 192L385 492Z"  horiz-adv-x="539" vert-adv-y="1000"  />

      
      <glyph glyph-name="unib6" unicode="&#xb6;" d="M412 710L412-100L341-100L341 272L264 272Q162 272 99.50 331.50Q37 391 37 491Q37 591 99.50 650.50Q162 710 264 710L412 710M567 710L567-100L495-100L495 710L567 710Z"  horiz-adv-x="648" vert-adv-y="1000"  />

      
      <glyph glyph-name="unib7" unicode="&#xb7;" d="M159 367L159 259L57 259L57 367L159 367Z"  horiz-adv-x="216" vert-adv-y="1000"  />

      
      <glyph glyph-name="unib8" unicode="&#xb8;" d="M270-145Q270-185 240.50-210Q211-235 165-235Q112-235 57-199L82-158Q129-185 163-185Q187-185 201.50-174.50Q216-164 216-146Q216-129 200-119Q184-109 159-109Q142-109 130-112L102-85L151 19L194 0L163-67Q210-65 240-86.50Q270-108 270-145Z"  horiz-adv-x="327" vert-adv-y="1000"  />

      
      <glyph glyph-name="unib9" unicode="&#xb9;" d="M165 710L218 710L218 302L149 302L149 625L74 570L39 618L165 710Z"  horiz-adv-x="318" vert-adv-y="1000"  />

      
      <glyph glyph-name="uniba" unicode="&#xba;" d="M411 517Q411 430 359 374Q307 318 226 318Q146 318 94 374Q42 430 42 517Q42 605 94 661Q146 717 226 717Q307 717 359 661Q411 605 411 517M113 517Q113 454 143.50 415.50Q174 377 226 377Q278 377 309 415.50Q340 454 340 517Q340 581 309 620Q278 659 226 659Q174 659 143.50 620Q113 581 113 517Z"  horiz-adv-x="452" vert-adv-y="1000"  />

      
      <glyph glyph-name="unibb" unicode="&#xbb;" d="M67 471L152 471L292 253L152 35L67 35L206 253L67 471M285 471L370 471L510 253L370 35L285 35L424 253L285 471Z"  horiz-adv-x="571" vert-adv-y="1000"  />

      
      <glyph glyph-name="unibc" unicode="&#xbc;" d="M165 680L218 680L218 272L149 272L149 595L74 540L39 588L165 680M626 695L680 662L204-15L151 19L626 695M792 149L849 149L849 92L792 92L792 0L723 0L723 92L516 92L516 157L684 408L760 408L587 149L723 149L723 235L792 235L792 149Z"  horiz-adv-x="879" vert-adv-y="1000"  />

      
      <glyph glyph-name="unibd" unicode="&#xbd;" d="M165 680L218 680L218 272L149 272L149 595L74 540L39 588L165 680M626 695L680 662L204-15L151 19L626 695M627 59L869 59L869 0L555 0L555 28Q555 86 586 123Q617 160 685 196L711 210Q761 236 780 253Q799 270 799 297Q799 326 777.50 341.50Q756 357 719 357Q663 357 601 302L561 348Q635 418 720 418Q788 418 829 384.50Q870 351 870 300Q870 266 855 240Q841 218 819 202Q797 186 752 162L724 147Q679 121 653 102Q631 85 627 59Z"  horiz-adv-x="910" vert-adv-y="1000"  />

      
      <glyph glyph-name="unibe" unicode="&#xbe;" d="M309.50 484Q309.50 484 329.25 467.50Q349 451 349 396Q349 341 307 301.50Q265 262 194 262Q114 262 30 314L65 364Q135 323 193 323Q232 323 255 343Q278 363 278 396Q278 428 253.50 447Q229 466 186 466Q149 466 134 459L103 502L248 621L49 621L49 680L334 680L334 622L205 517L209 517Q270 517 309.50 484M701 695L755 662L279-15L226 19L701 695M867 149L924 149L924 92L867 92L867 0L798 0L798 92L591 92L591 157L759 408L835 408L662 149L798 149L798 235L867 235L867 149Z"  horiz-adv-x="954" vert-adv-y="1000"  />

      
      <glyph glyph-name="unibf" unicode="&#xbf;" d="M205 385L205 493L307 493L307 385L205 385M6-52Q9 5 33 40Q57 75 116 127L139 147Q178 180 198 208Q214 230 219 268L222 297L293 297L293 262Q291 201 276 172.50Q261 144 200 91L180 74Q133 34 115 8.50Q97-17 97-51Q97-98 131.50-125.50Q166-153 223-153Q267-153 306.50-134.50Q346-116 401-70L454-130Q339-233 221-233Q129-233 67.50-184.50Q6-136 6-52Z"  horiz-adv-x="464" vert-adv-y="1000"  />

      
      <glyph glyph-name="unic0" unicode="&#xc0;" d="M558 0L494 181L174 181L110 0L17 0L274 710L395 710L653 0L558 0M202 259L466 259L433 352Q366 531 333 641Q308 556 246 383L235 351L202 259M206 910L302 910L374 769L298 769L206 910Z"  horiz-adv-x="669" vert-adv-y="1000"  />

      
      <glyph glyph-name="unic1" unicode="&#xc1;" d="M558 0L494 181L174 181L110 0L17 0L274 710L395 710L653 0L558 0M202 259L466 259L433 352Q366 531 333 641Q308 556 246 383L235 351L202 259M462 910L370 769L294 769L366 910L462 910Z"  horiz-adv-x="669" vert-adv-y="1000"  />

      
      <glyph glyph-name="unic2" unicode="&#xc2;" d="M558 0L494 181L174 181L110 0L17 0L274 710L395 710L653 0L558 0M202 259L466 259L433 352Q366 531 333 641Q308 556 246 383L235 351L202 259M412 769L334 867L256 769L182 769L280 910L388 910L486 769L412 769Z"  horiz-adv-x="669" vert-adv-y="1000"  />

      
      <glyph glyph-name="unic3" unicode="&#xc3;" d="M558 0L494 181L174 181L110 0L17 0L274 710L395 710L653 0L558 0M202 259L466 259L433 352Q366 531 333 641Q308 556 246 383L235 351L202 259M348 859Q382 836 404 836Q436 836 436 888L490 888Q490 837 468 807Q446 777 409 777Q383 777 332 805Q290 830 267 830Q233 830 233 778L178 778Q178 829 202.50 859Q227 889 267 889Q297 889 348 859Z"  horiz-adv-x="669" vert-adv-y="1000"  />

      
      <glyph glyph-name="unic4" unicode="&#xc4;" d="M558 0L494 181L174 181L110 0L17 0L274 710L395 710L653 0L558 0M202 259L466 259L433 352Q366 531 333 641Q308 556 246 383L235 351L202 259M287 896L287 793L203 793L203 896L287 896M464 896L464 793L380 793L380 896L464 896Z"  horiz-adv-x="669" vert-adv-y="1000"  />

      
      <glyph glyph-name="unic5" unicode="&#xc5;" d="M563 0L498 182L175 182L110 0L17 0L270 698Q215 733 215 797Q215 846 250 881Q287 916 337 916Q387 916 424 881Q460 846 460 797Q460 732 404 698L658 0L563 0M269 797Q269 767 288.50 747.50Q308 728 337 728Q367 728 386 747Q405 766 405 797Q405 828 386 847.50Q367 867 337 867Q307 867 288 847.50Q269 828 269 797M202 259L471 259L438 351L412 425Q362 564 336 648Q299 532 235 351L202 259Z"  horiz-adv-x="674" vert-adv-y="1000"  />

      
      <glyph glyph-name="unic6" unicode="&#xc6;" d="M527 77L916 77L916 0L434 0L434 181L195 181L101 0L7 0L376 710L907 710L907 633L527 633L527 404L880 404L880 327L527 327L527 77M235 259L434 259L434 644L235 259Z"  horiz-adv-x="962" vert-adv-y="1000"  />

      
      <glyph glyph-name="unic7" unicode="&#xc7;" d="M476-145Q476-185 446.50-210Q417-235 370-235Q318-235 262-199L288-158Q335-185 369-185Q393-185 407.50-174.50Q422-164 422-146Q422-129 406-119Q390-109 365-109Q348-109 336-112L308-85L341-14Q204-1 123 101Q42 203 42 356Q42 520 134 623Q226 726 384 726Q455 726 514 702.50Q573 679 636 625L582 561Q482 645 384 645Q271 645 203 564.50Q135 484 135 355Q135 228 202.50 146.50Q270 65 378 65Q436 65 483.50 88.50Q531 112 592 169L649 107Q583 43 524 14.50Q465-14 393-16L369-67Q416-65 446-86.50Q476-108 476-145Z"  horiz-adv-x="669" vert-adv-y="1000"  />

      
      <glyph glyph-name="unic8" unicode="&#xc8;" d="M554 710L554 633L174 633L174 404L528 404L528 327L174 327L174 77L563 77L563 0L82 0L82 710L554 710M192 910L288 910L360 769L284 769L192 910Z"  horiz-adv-x="609" vert-adv-y="1000"  />

      
      <glyph glyph-name="unic9" unicode="&#xc9;" d="M554 710L554 633L174 633L174 404L528 404L528 327L174 327L174 77L563 77L563 0L82 0L82 710L554 710M448 910L356 769L280 769L352 910L448 910Z"  horiz-adv-x="609" vert-adv-y="1000"  />

      
      <glyph glyph-name="unica" unicode="&#xca;" d="M554 710L554 633L174 633L174 404L528 404L528 327L174 327L174 77L563 77L563 0L82 0L82 710L554 710M398 769L320 867L242 769L168 769L266 910L374 910L472 769L398 769Z"  horiz-adv-x="609" vert-adv-y="1000"  />

      
      <glyph glyph-name="unicb" unicode="&#xcb;" d="M554 710L554 633L174 633L174 404L528 404L528 327L174 327L174 77L563 77L563 0L82 0L82 710L554 710M273 896L273 793L189 793L189 896L273 896M450 896L450 793L366 793L366 896L450 896Z"  horiz-adv-x="609" vert-adv-y="1000"  />

      
      <glyph glyph-name="unicc" unicode="&#xcc;" d="M181 710L181 0L89 0L89 710L181 710M7 910L103 910L175 769L99 769L7 910Z"  horiz-adv-x="270" vert-adv-y="1000"  />

      
      <glyph glyph-name="unicd" unicode="&#xcd;" d="M181 710L181 0L89 0L89 710L181 710M263 910L171 769L95 769L167 910L263 910Z"  horiz-adv-x="270" vert-adv-y="1000"  />

      
      <glyph glyph-name="unice" unicode="&#xce;" d="M181 710L181 0L89 0L89 710L181 710M213 769L135 867L57 769L-17 769L81 910L189 910L287 769L213 769Z"  horiz-adv-x="270" vert-adv-y="1000"  />

      
      <glyph glyph-name="unicf" unicode="&#xcf;" d="M181 710L181 0L89 0L89 710L181 710M88 896L88 793L4 793L4 896L88 896M265 896L265 793L181 793L181 896L265 896Z"  horiz-adv-x="270" vert-adv-y="1000"  />

      
      <glyph glyph-name="unid0" unicode="&#xd0;" d="M605.50 612.50Q605.50 612.50 647.25 563.75Q689 515 689 355Q689 195 605.50 97.50Q522 0 375 0L109 0L109 328L26 328L26 405L109 405L109 710L375 710Q522 710 605.50 612.50M595 355Q595 485 533 559Q471 633 360 633L202 633L202 405L389 405L389 328L202 328L202 77L360 77Q472 77 533.50 150.50Q595 224 595 355Z"  horiz-adv-x="731" vert-adv-y="1000"  />

      
      <glyph glyph-name="unid1" unicode="&#xd1;" d="M560 710L650 710L650 0L548 0L338 323Q230 485 167 594Q172 432 172 319L172 0L82 0L82 710L185 710L398 382L424 342Q529 178 565 117Q560 275 560 386L560 710M388 859Q422 836 444 836Q476 836 476 888L530 888Q530 837 508 807Q486 777 449 777Q423 777 372 805Q330 830 307 830Q273 830 273 778L218 778Q218 829 242.50 859Q267 889 307 889Q337 889 388 859Z"  horiz-adv-x="732" vert-adv-y="1000"  />

      
      <glyph glyph-name="unid2" unicode="&#xd2;" d="M624 621.50Q624 621.50 670 569.25Q716 517 716 355Q716 193 624 88.50Q532-16 379-16Q226-16 134 88.50Q42 193 42 355Q42 517 134 621.50Q226 726 379 726Q532 726 624 621.50M136 355Q136 227 203.50 146Q271 65 379 65Q488 65 555 145.50Q622 226 622 355Q622 483 555 564Q488 645 379 645Q271 645 203.50 563.50Q136 482 136 355M251 910L347 910L419 769L343 769L251 910Z"  horiz-adv-x="758" vert-adv-y="1000"  />

      
      <glyph glyph-name="unid3" unicode="&#xd3;" d="M624 621.50Q624 621.50 670 569.25Q716 517 716 355Q716 193 624 88.50Q532-16 379-16Q226-16 134 88.50Q42 193 42 355Q42 517 134 621.50Q226 726 379 726Q532 726 624 621.50M136 355Q136 227 203.50 146Q271 65 379 65Q488 65 555 145.50Q622 226 622 355Q622 483 555 564Q488 645 379 645Q271 645 203.50 563.50Q136 482 136 355M508 910L416 769L340 769L412 910L508 910Z"  horiz-adv-x="758" vert-adv-y="1000"  />

      
      <glyph glyph-name="unid4" unicode="&#xd4;" d="M624 621.50Q624 621.50 670 569.25Q716 517 716 355Q716 193 624 88.50Q532-16 379-16Q226-16 134 88.50Q42 193 42 355Q42 517 134 621.50Q226 726 379 726Q532 726 624 621.50M136 355Q136 227 203.50 146Q271 65 379 65Q488 65 555 145.50Q622 226 622 355Q622 483 555 564Q488 645 379 645Q271 645 203.50 563.50Q136 482 136 355M457 769L379 867L301 769L227 769L325 910L433 910L531 769L457 769Z"  horiz-adv-x="758" vert-adv-y="1000"  />

      
      <glyph glyph-name="unid5" unicode="&#xd5;" d="M624 621.50Q624 621.50 670 569.25Q716 517 716 355Q716 193 624 88.50Q532-16 379-16Q226-16 134 88.50Q42 193 42 355Q42 517 134 621.50Q226 726 379 726Q532 726 624 621.50M136 355Q136 227 203.50 146Q271 65 379 65Q488 65 555 145.50Q622 226 622 355Q622 483 555 564Q488 645 379 645Q271 645 203.50 563.50Q136 482 136 355M393 859Q428 836 449 836Q481 836 481 888L535 888Q535 837 513 807Q491 777 454 777Q428 777 377 805Q335 830 312 830Q278 830 278 778L223 778Q223 829 247.50 859Q272 889 312 889Q342 889 393 859Z"  horiz-adv-x="758" vert-adv-y="1000"  />

      
      <glyph glyph-name="unid6" unicode="&#xd6;" d="M624 621.50Q624 621.50 670 569.25Q716 517 716 355Q716 193 624 88.50Q532-16 379-16Q226-16 134 88.50Q42 193 42 355Q42 517 134 621.50Q226 726 379 726Q532 726 624 621.50M136 355Q136 227 203.50 146Q271 65 379 65Q488 65 555 145.50Q622 226 622 355Q622 483 555 564Q488 645 379 645Q271 645 203.50 563.50Q136 482 136 355M332 896L332 793L248 793L248 896L332 896M509 896L509 793L425 793L425 896L509 896Z"  horiz-adv-x="758" vert-adv-y="1000"  />

      
      <glyph glyph-name="unid7" unicode="&#xd7;" d="M529 488L351 310L529 132L478 81L300 259L122 81L70 132L248 310L70 488L122 540L300 362L478 540L529 488Z"  horiz-adv-x="600" vert-adv-y="1000"  />

      
      <glyph glyph-name="unid8" unicode="&#xd8;" d="M716 355Q716 193 624 88.50Q532-16 379-16Q256-16 171 53L124-3L73 40L123 100Q42 204 42 355Q42 517 134 621.50Q226 726 379 726Q502 726 587 657L634 713L685 670L635 610Q716 506 716 355M183 173L531 589Q469 645 379 645Q271 645 203.50 563.50Q136 482 136 355Q136 249 183 173M622 355Q622 461 575 538L227 121Q289 65 379 65Q488 65 555 145.50Q622 226 622 355Z"  horiz-adv-x="758" vert-adv-y="1000"  />

      
      <glyph glyph-name="unid9" unicode="&#xd9;" d="M612 710L612 226Q612 108 544 46.50Q476-15 344-15Q213-15 145 46.50Q77 108 77 226L77 710L169 710L169 231Q169 150 213.50 108Q258 66 344 66Q430 66 474.50 108Q519 150 519 231L519 710L612 710M216 910L312 910L384 769L308 769L216 910Z"  horiz-adv-x="688" vert-adv-y="1000"  />

      
      <glyph glyph-name="unida" unicode="&#xda;" d="M612 710L612 226Q612 108 544 46.50Q476-15 344-15Q213-15 145 46.50Q77 108 77 226L77 710L169 710L169 231Q169 150 213.50 108Q258 66 344 66Q430 66 474.50 108Q519 150 519 231L519 710L612 710M472 910L380 769L304 769L376 910L472 910Z"  horiz-adv-x="688" vert-adv-y="1000"  />

      
      <glyph glyph-name="unidb" unicode="&#xdb;" d="M612 710L612 226Q612 108 544 46.50Q476-15 344-15Q213-15 145 46.50Q77 108 77 226L77 710L169 710L169 231Q169 150 213.50 108Q258 66 344 66Q430 66 474.50 108Q519 150 519 231L519 710L612 710M422 769L344 867L266 769L192 769L290 910L398 910L496 769L422 769Z"  horiz-adv-x="688" vert-adv-y="1000"  />

      
      <glyph glyph-name="unidc" unicode="&#xdc;" d="M612 710L612 226Q612 108 544 46.50Q476-15 344-15Q213-15 145 46.50Q77 108 77 226L77 710L169 710L169 231Q169 150 213.50 108Q258 66 344 66Q430 66 474.50 108Q519 150 519 231L519 710L612 710M297 896L297 793L213 793L213 896L297 896M474 896L474 793L390 793L390 896L474 896Z"  horiz-adv-x="688" vert-adv-y="1000"  />

      
      <glyph glyph-name="unidd" unicode="&#xdd;" d="M509 710L609 710L357 303L357 0L265 0L265 304L15 710L117 710L313 385L509 710M440 910L348 769L272 769L344 910L440 910Z"  horiz-adv-x="624" vert-adv-y="1000"  />

      
      <glyph glyph-name="unide" unicode="&#xde;" d="M555.50 524.50Q555.50 524.50 586.75 496.25Q618 468 618 369Q618 270 555.50 213.50Q493 157 387 157L174 157L174 0L82 0L82 710L174 710L174 581L387 581Q493 581 555.50 524.50M486 268.50Q486 268.50 506 286.25Q526 304 526 369Q526 434 486 469Q446 504 374 504L174 504L174 233L374 233Q446 233 486 268.50Z"  horiz-adv-x="651" vert-adv-y="1000"  />

      
      <glyph glyph-name="unidf" unicode="&#xdf;" d="M542 211Q542 119 482 55.50Q422-8 325-8Q275-8 209 9L223 78Q284 64 319 64Q379 64 417 105Q455 146 455 212Q455 283 408.50 321.50Q362 360 275 360L250 360L250 428L275 428Q333 428 364 458.50Q395 489 395 544Q395 592 362 622Q329 652 277 652Q217 652 185 616Q153 580 153 512L153 0L67 0L67 519Q67 616 124.50 670Q182 724 278 724Q364 724 421.50 672Q479 620 479 547Q479 445 396 406Q465 385 503.50 334Q542 283 542 211Z"  horiz-adv-x="581" vert-adv-y="1000"  />

      
      <glyph glyph-name="unie0" unicode="&#xe0;" d="M466 342L466 0L388 0L388 61Q336-16 221-16Q140-16 92.50 19Q45 54 45 122Q45 201 104 237Q165 274 274 293L384 313L384 338Q384 383 352.50 409Q321 435 269 435Q224 435 188.50 416.50Q153 398 107 352L52 401Q141 506 266 506Q360 506 413 461.50Q466 417 466 342M384 184L384 249L294 231Q202 212 167.50 192Q133 172 129 125Q129 91 155.50 73Q182 55 230 55Q297 55 340.50 90.50Q384 126 384 184M144 706L240 706L312 565L236 565L144 706Z"  horiz-adv-x="532" vert-adv-y="1000"  />

      
      <glyph glyph-name="unie1" unicode="&#xe1;" d="M466 342L466 0L388 0L388 61Q336-16 221-16Q140-16 92.50 19Q45 54 45 122Q45 201 104 237Q165 274 274 293L384 313L384 338Q384 383 352.50 409Q321 435 269 435Q224 435 188.50 416.50Q153 398 107 352L52 401Q141 506 266 506Q360 506 413 461.50Q466 417 466 342M384 184L384 249L294 231Q202 212 167.50 192Q133 172 129 125Q129 91 155.50 73Q182 55 230 55Q297 55 340.50 90.50Q384 126 384 184M400 706L308 565L232 565L304 706L400 706Z"  horiz-adv-x="532" vert-adv-y="1000"  />

      
      <glyph glyph-name="unie2" unicode="&#xe2;" d="M466 342L466 0L388 0L388 61Q336-16 221-16Q140-16 92.50 19Q45 54 45 122Q45 201 104 237Q165 274 274 293L384 313L384 338Q384 383 352.50 409Q321 435 269 435Q224 435 188.50 416.50Q153 398 107 352L52 401Q141 506 266 506Q360 506 413 461.50Q466 417 466 342M384 184L384 249L294 231Q202 212 167.50 192Q133 172 129 125Q129 91 155.50 73Q182 55 230 55Q297 55 340.50 90.50Q384 126 384 184M350 565L272 663L194 565L120 565L218 706L326 706L424 565L350 565Z"  horiz-adv-x="532" vert-adv-y="1000"  />

      
      <glyph glyph-name="unie3" unicode="&#xe3;" d="M466 342L466 0L388 0L388 61Q336-16 221-16Q140-16 92.50 19Q45 54 45 122Q45 201 104 237Q165 274 274 293L384 313L384 338Q384 383 352.50 409Q321 435 269 435Q224 435 188.50 416.50Q153 398 107 352L52 401Q141 506 266 506Q360 506 413 461.50Q466 417 466 342M384 184L384 249L294 231Q202 212 167.50 192Q133 172 129 125Q129 91 155.50 73Q182 55 230 55Q297 55 340.50 90.50Q384 126 384 184M286 655Q320 632 342 632Q374 632 374 684L428 684Q428 633 406 603Q384 573 347 573Q321 573 270 601Q228 626 205 626Q171 626 171 574L116 574Q116 625 140.50 655Q165 685 205 685Q235 685 286 655Z"  horiz-adv-x="532" vert-adv-y="1000"  />

      
      <glyph glyph-name="unie4" unicode="&#xe4;" d="M466 342L466 0L388 0L388 61Q336-16 221-16Q140-16 92.50 19Q45 54 45 122Q45 201 104 237Q165 274 274 293L384 313L384 338Q384 383 352.50 409Q321 435 269 435Q224 435 188.50 416.50Q153 398 107 352L52 401Q141 506 266 506Q360 506 413 461.50Q466 417 466 342M384 184L384 249L294 231Q202 212 167.50 192Q133 172 129 125Q129 91 155.50 73Q182 55 230 55Q297 55 340.50 90.50Q384 126 384 184M225 692L225 589L141 589L141 692L225 692M402 692L402 589L318 589L318 692L402 692Z"  horiz-adv-x="532" vert-adv-y="1000"  />

      
      <glyph glyph-name="unie5" unicode="&#xe5;" d="M466 342L466 0L388 0L388 61Q336-16 221-16Q140-16 92.50 19Q45 54 45 122Q45 201 104 237Q165 274 274 293L384 313L384 338Q384 383 352.50 409Q321 435 269 435Q224 435 188.50 416.50Q153 398 107 352L52 401Q141 506 266 506Q360 506 413 461.50Q466 417 466 342M384 184L384 249L294 231Q202 212 167.50 192Q133 172 129 125Q129 91 155.50 73Q182 55 230 55Q297 55 340.50 90.50Q384 126 384 184M380 663Q380 621 348 589Q316 559 273 559Q228 559 197 589.50Q166 620 166 663Q166 707 197 737Q228 767 273 767Q317 767 348 736Q380 706 380 663M230 707Q230 707 221.50 698.50Q213 690 213 663Q213 636 230 619Q247 602 273 602Q299 602 315.50 619Q332 636 332 663Q332 690 315.50 707Q299 724 273 724Q247 724 230 707Z"  horiz-adv-x="532" vert-adv-y="1000"  />

      
      <glyph glyph-name="unie6" unicode="&#xe6;" d="M791 140L842 88Q790 33 739.50 9.50Q689-14 627-14Q501-14 434 75Q349-16 223-16Q140-16 92.50 18.50Q45 53 45 120Q45 186 90.50 224Q136 262 237 282L384 310L384 332Q384 435 272 435Q193 435 111 356L58 408Q108 460 159.50 483Q211 506 276 506Q401 506 444 427Q506 506 619 506Q724 506 782.50 443Q841 380 841 269L839 230L470 230Q474 154 515 106Q556 58 628 58Q674 58 708 76Q741 93 791 140M472 293L757 293Q754 360 717.50 399Q681 438 618 438Q559 438 520.50 400Q482 362 472 293M401 136Q387 178 384 246L259 220Q190 206 160 184Q130 162 130 126Q130 91 157 73Q184 55 231 55Q335 55 401 136Z"  horiz-adv-x="881" vert-adv-y="1000"  />

      
      <glyph glyph-name="unie7" unicode="&#xe7;" d="M293-14L268-67Q315-65 345-86.50Q375-108 375-145Q375-185 345.50-210Q316-235 269-235Q216-235 162-199L187-158Q234-185 268-185Q292-185 306.50-174.50Q321-164 321-146Q321-129 305-119Q289-109 264-109Q247-109 235-112L207-85L241-12Q147-1 92 68.50Q37 138 37 246Q37 363 103.50 434.50Q170 506 276 506Q337 506 382.50 485Q428 464 473 413L417 360Q379 401 346.50 417.50Q314 434 275 434Q205 434 165 379.50Q125 325 125 246Q125 168 164 113Q204 59 276 59Q316 59 348.50 76.50Q381 94 423 141L480 93Q435 39 391.50 14Q348-11 293-14Z"  horiz-adv-x="500" vert-adv-y="1000"  />

      
      <glyph glyph-name="unie8" unicode="&#xe8;" d="M444 140L495 88Q442 32 393 9Q344-14 281-14Q170-14 103.50 56.50Q37 127 37 243Q37 359 101.50 432.50Q166 506 272 506Q377 506 435.50 443Q494 380 494 269Q494 255 492 231L123 231Q127 153 168 105.50Q209 58 282 58Q328 58 361 76Q394 93 444 140M125 295L409 295Q406 361 369.50 399Q333 437 271 437Q211 437 173 400Q135 363 125 295M154 706L250 706L322 565L246 565L154 706Z"  horiz-adv-x="534" vert-adv-y="1000"  />

      
      <glyph glyph-name="unie9" unicode="&#xe9;" d="M444 140L495 88Q442 32 393 9Q344-14 281-14Q170-14 103.50 56.50Q37 127 37 243Q37 359 101.50 432.50Q166 506 272 506Q377 506 435.50 443Q494 380 494 269Q494 255 492 231L123 231Q127 153 168 105.50Q209 58 282 58Q328 58 361 76Q394 93 444 140M125 295L409 295Q406 361 369.50 399Q333 437 271 437Q211 437 173 400Q135 363 125 295M410 706L318 565L242 565L314 706L410 706Z"  horiz-adv-x="534" vert-adv-y="1000"  />

      
      <glyph glyph-name="uniea" unicode="&#xea;" d="M444 140L495 88Q442 32 393 9Q344-14 281-14Q170-14 103.50 56.50Q37 127 37 243Q37 359 101.50 432.50Q166 506 272 506Q377 506 435.50 443Q494 380 494 269Q494 255 492 231L123 231Q127 153 168 105.50Q209 58 282 58Q328 58 361 76Q394 93 444 140M125 295L409 295Q406 361 369.50 399Q333 437 271 437Q211 437 173 400Q135 363 125 295M360 565L282 663L204 565L130 565L228 706L336 706L434 565L360 565Z"  horiz-adv-x="534" vert-adv-y="1000"  />

      
      <glyph glyph-name="unieb" unicode="&#xeb;" d="M444 140L495 88Q442 32 393 9Q344-14 281-14Q170-14 103.50 56.50Q37 127 37 243Q37 359 101.50 432.50Q166 506 272 506Q377 506 435.50 443Q494 380 494 269Q494 255 492 231L123 231Q127 153 168 105.50Q209 58 282 58Q328 58 361 76Q394 93 444 140M125 295L409 295Q406 361 369.50 399Q333 437 271 437Q211 437 173 400Q135 363 125 295M235 692L235 589L151 589L151 692L235 692M412 692L412 589L328 589L328 692L412 692Z"  horiz-adv-x="534" vert-adv-y="1000"  />

      
      <glyph glyph-name="uniec" unicode="&#xec;" d="M153 492L153 0L67 0L67 492L153 492M-18 706L78 706L150 565L74 565L-18 706Z"  horiz-adv-x="220" vert-adv-y="1000"  />

      
      <glyph glyph-name="unied" unicode="&#xed;" d="M153 492L153 0L67 0L67 492L153 492M239 706L147 565L71 565L143 706L239 706Z"  horiz-adv-x="220" vert-adv-y="1000"  />

      
      <glyph glyph-name="uniee" unicode="&#xee;" d="M153 492L153 0L67 0L67 492L153 492M189 565L111 663L33 565L-41 565L57 706L165 706L263 565L189 565Z"  horiz-adv-x="220" vert-adv-y="1000"  />

      
      <glyph glyph-name="unief" unicode="&#xef;" d="M153 492L153 0L67 0L67 492L153 492M64 692L64 589L-20 589L-20 692L64 692M241 692L241 589L157 589L157 692L241 692Z"  horiz-adv-x="220" vert-adv-y="1000"  />

      
      <glyph glyph-name="unif0" unicode="&#xf0;" d="M519 293Q519 150 454 67Q389-16 275-16Q170-16 103.50 57Q37 130 37 232Q37 333 98 404.50Q159 476 256 476Q315 476 361.50 449.50Q408 423 435 377Q425 443 395.50 490.50Q366 538 310 576L207 509L176 553L259 606Q229 621 187 638L141 656L173 723L216 707Q282 683 332 654L418 709L448 665L380 621Q519 511 519 293M426 231Q426 302 381 352Q336 402 269 402Q203 402 163 353Q124 304 124 231Q124 158 165 108Q207 59 275 59Q341 59 383.50 109Q426 159 426 231Z"  horiz-adv-x="569" vert-adv-y="1000"  />

      
      <glyph glyph-name="unif1" unicode="&#xf1;" d="M479 337L479 0L393 0L393 310Q393 370 364 401.50Q335 433 280 433Q227 433 190 396Q153 360 153 305L153 0L67 0L67 492L148 492L148 429Q196 506 303 506Q387 506 433 459Q479 412 479 337M287 655Q321 632 343 632Q375 632 375 684L429 684Q429 633 407 603Q385 573 348 573Q322 573 271 601Q229 626 206 626Q172 626 172 574L117 574Q117 625 141.50 655Q166 685 206 685Q236 685 287 655Z"  horiz-adv-x="545" vert-adv-y="1000"  />

      
      <glyph glyph-name="unif2" unicode="&#xf2;" d="M456 433.50Q456 433.50 490 397.25Q524 361 524 246Q524 131 456 58.50Q388-14 281-14Q174-14 105.50 58.50Q37 131 37 246Q37 361 105.50 433.50Q174 506 281 506Q388 506 456 433.50M167.50 382Q167.50 382 146.25 356Q125 330 125 246Q125 162 167.50 110Q210 58 281 58Q352 58 394 109.50Q436 161 436 246Q436 331 394 382.50Q352 434 281 434Q210 434 167.50 382M151 706L247 706L319 565L243 565L151 706Z"  horiz-adv-x="561" vert-adv-y="1000"  />

      
      <glyph glyph-name="unif3" unicode="&#xf3;" d="M456 433.50Q456 433.50 490 397.25Q524 361 524 246Q524 131 456 58.50Q388-14 281-14Q174-14 105.50 58.50Q37 131 37 246Q37 361 105.50 433.50Q174 506 281 506Q388 506 456 433.50M167.50 382Q167.50 382 146.25 356Q125 330 125 246Q125 162 167.50 110Q210 58 281 58Q352 58 394 109.50Q436 161 436 246Q436 331 394 382.50Q352 434 281 434Q210 434 167.50 382M407 706L315 565L239 565L311 706L407 706Z"  horiz-adv-x="561" vert-adv-y="1000"  />

      
      <glyph glyph-name="unif4" unicode="&#xf4;" d="M456 433.50Q456 433.50 490 397.25Q524 361 524 246Q524 131 456 58.50Q388-14 281-14Q174-14 105.50 58.50Q37 131 37 246Q37 361 105.50 433.50Q174 506 281 506Q388 506 456 433.50M167.50 382Q167.50 382 146.25 356Q125 330 125 246Q125 162 167.50 110Q210 58 281 58Q352 58 394 109.50Q436 161 436 246Q436 331 394 382.50Q352 434 281 434Q210 434 167.50 382M357 565L279 663L201 565L127 565L225 706L333 706L431 565L357 565Z"  horiz-adv-x="561" vert-adv-y="1000"  />

      
      <glyph glyph-name="unif5" unicode="&#xf5;" d="M456 433.50Q456 433.50 490 397.25Q524 361 524 246Q524 131 456 58.50Q388-14 281-14Q174-14 105.50 58.50Q37 131 37 246Q37 361 105.50 433.50Q174 506 281 506Q388 506 456 433.50M167.50 382Q167.50 382 146.25 356Q125 330 125 246Q125 162 167.50 110Q210 58 281 58Q352 58 394 109.50Q436 161 436 246Q436 331 394 382.50Q352 434 281 434Q210 434 167.50 382M293 655Q327 632 349 632Q381 632 381 684L435 684Q435 633 413 603Q391 573 354 573Q328 573 277 601Q235 626 212 626Q178 626 178 574L123 574Q123 625 147.50 655Q172 685 212 685Q242 685 293 655Z"  horiz-adv-x="561" vert-adv-y="1000"  />

      
      <glyph glyph-name="unif6" unicode="&#xf6;" d="M456 433.50Q456 433.50 490 397.25Q524 361 524 246Q524 131 456 58.50Q388-14 281-14Q174-14 105.50 58.50Q37 131 37 246Q37 361 105.50 433.50Q174 506 281 506Q388 506 456 433.50M167.50 382Q167.50 382 146.25 356Q125 330 125 246Q125 162 167.50 110Q210 58 281 58Q352 58 394 109.50Q436 161 436 246Q436 331 394 382.50Q352 434 281 434Q210 434 167.50 382M232 692L232 589L148 589L148 692L232 692M409 692L409 589L325 589L325 692L409 692Z"  horiz-adv-x="561" vert-adv-y="1000"  />

      
      <glyph glyph-name="unif7" unicode="&#xf7;" d="M351 543L351 434L249 434L249 543L351 543M560 347L560 273L40 273L40 347L560 347M351 186L351 77L249 77L249 186L351 186Z"  horiz-adv-x="600" vert-adv-y="1000"  />

      
      <glyph glyph-name="unif8" unicode="&#xf8;" d="M524 246Q524 131 456 58.50Q388-14 281-14Q211-14 155 18L127-22L79 13L108 55Q37 129 37 246Q37 361 105.50 433.50Q174 506 281 506Q350 506 403 475L432 517L481 483L451 440Q524 367 524 246M157 124L359 413Q323 434 281 434Q210 434 167.50 382Q125 330 125 246Q125 174 157 124M436 246Q436 321 402 371L199 81Q234 58 281 58Q352 58 394 109.50Q436 161 436 246Z"  horiz-adv-x="561" vert-adv-y="1000"  />

      
      <glyph glyph-name="unif9" unicode="&#xf9;" d="M384 492L470 492L470 0L390 0L390 61Q345-14 241-14Q154-14 110 29Q66 72 66 147L66 492L152 492L152 168Q152 60 255 60Q313 60 348.50 95Q384 130 384 192L384 492M132 706L228 706L300 565L224 565L132 706Z"  horiz-adv-x="537" vert-adv-y="1000"  />

      
      <glyph glyph-name="unifa" unicode="&#xfa;" d="M384 492L470 492L470 0L390 0L390 61Q345-14 241-14Q154-14 110 29Q66 72 66 147L66 492L152 492L152 168Q152 60 255 60Q313 60 348.50 95Q384 130 384 192L384 492M389 706L297 565L221 565L293 706L389 706Z"  horiz-adv-x="537" vert-adv-y="1000"  />

      
      <glyph glyph-name="unifb" unicode="&#xfb;" d="M384 492L470 492L470 0L390 0L390 61Q345-14 241-14Q154-14 110 29Q66 72 66 147L66 492L152 492L152 168Q152 60 255 60Q313 60 348.50 95Q384 130 384 192L384 492M339 565L261 663L183 565L109 565L207 706L315 706L413 565L339 565Z"  horiz-adv-x="537" vert-adv-y="1000"  />

      
      <glyph glyph-name="unifc" unicode="&#xfc;" d="M384 492L470 492L470 0L390 0L390 61Q345-14 241-14Q154-14 110 29Q66 72 66 147L66 492L152 492L152 168Q152 60 255 60Q313 60 348.50 95Q384 130 384 192L384 492M214 692L214 589L130 589L130 692L214 692M391 692L391 589L307 589L307 692L391 692Z"  horiz-adv-x="537" vert-adv-y="1000"  />

      
      <glyph glyph-name="unifd" unicode="&#xfd;" d="M379 492L466 492L269-68Q244-138 213-165.50Q182-193 121-193Q78-193 45-183L60-117Q87-123 113-123Q144-123 162.50-106Q181-89 196-45L202-26L17 492L108 492L163 329Q185 265 236 111L244 86L274 177L324 331L379 492M369 706L277 565L201 565L273 706L369 706Z"  horiz-adv-x="484" vert-adv-y="1000"  />

      
      <glyph glyph-name="unife" unicode="&#xfe;" d="M533 247Q533 131 472 59Q411-13 316-13Q205-13 153 66L153-180L67-180L67 710L153 710L153 424Q208 505 316 505Q411 505 472 433Q533 361 533 247M406 112Q406 112 425.50 137.50Q445 163 445 247Q445 331 406.50 381.50Q368 432 303 432Q234 432 192 382Q150 332 150 247Q150 161 192 111Q234 61 303 61Q367 61 406 112Z"  horiz-adv-x="572" vert-adv-y="1000"  />

      
      <glyph glyph-name="uniff" unicode="&#xff;" d="M379 492L466 492L269-68Q244-138 213-165.50Q182-193 121-193Q78-193 45-183L60-117Q87-123 113-123Q144-123 162.50-106Q181-89 196-45L202-26L17 492L108 492L163 329Q185 265 236 111L244 86L274 177L324 331L379 492M194 692L194 589L110 589L110 692L194 692M371 692L371 589L287 589L287 692L371 692Z"  horiz-adv-x="484" vert-adv-y="1000"  />

      
      <glyph glyph-name="uni0100" unicode="&#x0100;" d="M558 0L494 181L174 181L110 0L17 0L274 710L395 710L653 0L558 0M202 259L466 259L433 352Q366 531 333 641Q308 556 246 383L235 351L202 259M474 864L474 798L195 798L195 864L474 864Z"  horiz-adv-x="669" vert-adv-y="1000"  />

      
      <glyph glyph-name="uni0101" unicode="&#x0101;" d="M466 342L466 0L388 0L388 61Q336-16 221-16Q140-16 92.50 19Q45 54 45 122Q45 201 104 237Q165 274 274 293L384 313L384 338Q384 383 352.50 409Q321 435 269 435Q224 435 188.50 416.50Q153 398 107 352L52 401Q141 506 266 506Q360 506 413 461.50Q466 417 466 342M384 184L384 249L294 231Q202 212 167.50 192Q133 172 129 125Q129 91 155.50 73Q182 55 230 55Q297 55 340.50 90.50Q384 126 384 184M412 660L412 594L133 594L133 660L412 660Z"  horiz-adv-x="532" vert-adv-y="1000"  />

      
      <glyph glyph-name="uni0102" unicode="&#x0102;" d="M558 0L494 181L174 181L110 0L17 0L274 710L395 710L653 0L558 0M202 259L466 259L433 352Q366 531 333 641Q308 556 246 383L235 351L202 259M190 894L253 894Q254 861 275 841Q296 821 334 821Q372 821 392.50 840.50Q413 860 415 894L477 894Q477 834 437.50 798.50Q398 763 334 763Q269 763 229.50 798.50Q190 834 190 894Z"  horiz-adv-x="669" vert-adv-y="1000"  />

      
      <glyph glyph-name="uni0103" unicode="&#x0103;" d="M466 342L466 0L388 0L388 61Q336-16 221-16Q140-16 92.50 19Q45 54 45 122Q45 201 104 237Q165 274 274 293L384 313L384 338Q384 383 352.50 409Q321 435 269 435Q224 435 188.50 416.50Q153 398 107 352L52 401Q141 506 266 506Q360 506 413 461.50Q466 417 466 342M384 184L384 249L294 231Q202 212 167.50 192Q133 172 129 125Q129 91 155.50 73Q182 55 230 55Q297 55 340.50 90.50Q384 126 384 184M128 690L191 690Q192 657 213 637Q234 617 272 617Q310 617 330.50 636.50Q351 656 353 690L415 690Q415 630 375.50 594.50Q336 559 272 559Q207 559 167.50 594.50Q128 630 128 690Z"  horiz-adv-x="532" vert-adv-y="1000"  />

      
      <glyph glyph-name="uni0104" unicode="&#x0104;" d="M624-152Q640-152 650-149L650-203Q636-209 612-209Q565-209 537.50-187Q510-165 510-125Q510-58 582 0L558 0L494 181L174 181L110 0L17 0L274 710L395 710L653 0Q573-54 573-110Q573-152 624-152M202 259L466 259L433 352Q366 531 333 641Q308 556 246 383L235 351L202 259Z"  horiz-adv-x="669" vert-adv-y="1000"  />

      
      <glyph glyph-name="uni0105" unicode="&#x0105;" d="M387-110Q387-152 438-152Q453-152 464-149L464-203Q450-209 426-209Q379-209 351.50-187Q324-165 324-125Q324-58 396 0L388 0L388 61Q336-16 221-16Q140-16 92.50 19Q45 54 45 122Q45 201 104 237Q165 274 274 293L384 313L384 338Q384 383 352.50 409Q321 435 269 435Q224 435 188.50 416.50Q153 398 107 352L52 401Q141 506 266 506Q360 506 413 461.50Q466 417 466 342L466 0Q387-54 387-110M384 184L384 249L294 231Q202 212 167.50 192Q133 172 129 125Q129 91 155.50 73Q182 55 230 55Q297 55 340.50 90.50Q384 126 384 184Z"  horiz-adv-x="532" vert-adv-y="1000"  />

      
      <glyph glyph-name="uni0106" unicode="&#x0106;" d="M636 625L582 561Q482 645 384 645Q271 645 203 564.50Q135 484 135 355Q135 228 202.50 146.50Q270 65 378 65Q436 65 483.50 88.50Q531 112 592 169L649 107Q579 41 517.50 12.50Q456-16 379-16Q226-16 134 88Q42 192 42 356Q42 520 134 623Q226 726 384 726Q455 726 514 702.50Q573 679 636 625M514 910L422 769L346 769L418 910L514 910Z"  horiz-adv-x="669" vert-adv-y="1000"  />

      
      <glyph glyph-name="uni0107" unicode="&#x0107;" d="M275 434Q205 434 165 379.50Q125 325 125 246Q125 168 164 113Q204 59 276 59Q316 59 348.50 76.50Q381 94 423 141L480 93Q433 34 386 10Q339-14 276-14Q168-14 102.50 57Q37 128 37 246Q37 363 103.50 434.50Q170 506 276 506Q337 506 382.50 485Q428 464 473 413L417 360Q379 401 346.50 417.50Q314 434 275 434M402 706L310 565L234 565L306 706L402 706Z"  horiz-adv-x="500" vert-adv-y="1000"  />

      
      <glyph glyph-name="uni010A" unicode="&#x010A;" d="M636 625L582 561Q482 645 384 645Q271 645 203 564.50Q135 484 135 355Q135 228 202.50 146.50Q270 65 378 65Q436 65 483.50 88.50Q531 112 592 169L649 107Q579 41 517.50 12.50Q456-16 379-16Q226-16 134 88Q42 192 42 356Q42 520 134 623Q226 726 384 726Q455 726 514 702.50Q573 679 636 625M429 896L429 793L343 793L343 896L429 896Z"  horiz-adv-x="669" vert-adv-y="1000"  />

      
      <glyph glyph-name="uni010B" unicode="&#x010B;" d="M275 434Q205 434 165 379.50Q125 325 125 246Q125 168 164 113Q204 59 276 59Q316 59 348.50 76.50Q381 94 423 141L480 93Q433 34 386 10Q339-14 276-14Q168-14 102.50 57Q37 128 37 246Q37 363 103.50 434.50Q170 506 276 506Q337 506 382.50 485Q428 464 473 413L417 360Q379 401 346.50 417.50Q314 434 275 434M316 692L316 589L230 589L230 692L316 692Z"  horiz-adv-x="500" vert-adv-y="1000"  />

      
      <glyph glyph-name="uni010C" unicode="&#x010C;" d="M636 625L582 561Q482 645 384 645Q271 645 203 564.50Q135 484 135 355Q135 228 202.50 146.50Q270 65 378 65Q436 65 483.50 88.50Q531 112 592 169L649 107Q579 41 517.50 12.50Q456-16 379-16Q226-16 134 88Q42 192 42 356Q42 520 134 623Q226 726 384 726Q455 726 514 702.50Q573 679 636 625M538 910L440 769L332 769L234 910L308 910L386 811L464 910L538 910Z"  horiz-adv-x="669" vert-adv-y="1000"  />

      
      <glyph glyph-name="uni010D" unicode="&#x010D;" d="M275 434Q205 434 165 379.50Q125 325 125 246Q125 168 164 113Q204 59 276 59Q316 59 348.50 76.50Q381 94 423 141L480 93Q433 34 386 10Q339-14 276-14Q168-14 102.50 57Q37 128 37 246Q37 363 103.50 434.50Q170 506 276 506Q337 506 382.50 485Q428 464 473 413L417 360Q379 401 346.50 417.50Q314 434 275 434M425 706L327 565L219 565L121 706L195 706L273 607L351 706L425 706Z"  horiz-adv-x="500" vert-adv-y="1000"  />

      
      <glyph glyph-name="uni010E" unicode="&#x010E;" d="M577.50 612.50Q577.50 612.50 619.25 563.75Q661 515 661 355Q661 195 577.50 97.50Q494 0 347 0L82 0L82 710L347 710Q494 710 577.50 612.50M332 633L174 633L174 77L332 77Q444 77 505.50 150.50Q567 224 567 355Q567 485 505 559Q443 633 332 633M498 910L400 769L292 769L194 910L268 910L346 811L424 910L498 910Z"  horiz-adv-x="703" vert-adv-y="1000"  />

      
      <glyph glyph-name="uni010F" unicode="&#x010F;" d="M417 710L503 710L503 0L422 0L422 76Q367-13 254-13Q159-13 98 59Q37 131 37 246Q37 361 99 433Q161 505 256 505Q363 505 417 426L417 710M378 110.50Q378 110.50 399 135.75Q420 161 420 246Q420 331 378 381Q336 431 267 431Q203 431 164 380Q125 329 125 246Q125 162 163.50 111Q202 60 267 60Q336 60 378 110.50M705 710L644 512L589 512L619 710L705 710Z"  horiz-adv-x="716" vert-adv-y="1000"  />

      
      <glyph glyph-name="uni0110" unicode="&#x0110;" d="M605.50 612.50Q605.50 612.50 647.25 563.75Q689 515 689 355Q689 195 605.50 97.50Q522 0 375 0L109 0L109 328L26 328L26 405L109 405L109 710L375 710Q522 710 605.50 612.50M595 355Q595 485 533 559Q471 633 360 633L202 633L202 405L389 405L389 328L202 328L202 77L360 77Q472 77 533.50 150.50Q595 224 595 355Z"  horiz-adv-x="731" vert-adv-y="1000"  />

      
      <glyph glyph-name="uni0111" unicode="&#x0111;" d="M577 628L577 566L504 566L504 0L425 0L425 78Q371-13 256-13Q161-13 100 58.50Q39 130 39 244Q39 358 101 429.50Q163 501 258 501Q365 501 418 424L418 566L294 566L294 628L418 628L418 710L504 710L504 628L577 628M380 110Q380 110 401 135Q422 160 422 244Q422 328 380 378Q338 428 269 428Q205 428 166 377.50Q127 327 127 244Q127 162 165.50 111Q204 60 269 60Q338 60 380 110Z"  horiz-adv-x="592" vert-adv-y="1000"  />

      
      <glyph glyph-name="uni0112" unicode="&#x0112;" d="M554 710L554 633L174 633L174 404L528 404L528 327L174 327L174 77L563 77L563 0L82 0L82 710L554 710M459 864L459 798L180 798L180 864L459 864Z"  horiz-adv-x="609" vert-adv-y="1000"  />

      
      <glyph glyph-name="uni0113" unicode="&#x0113;" d="M444 140L495 88Q442 32 393 9Q344-14 281-14Q170-14 103.50 56.50Q37 127 37 243Q37 359 101.50 432.50Q166 506 272 506Q377 506 435.50 443Q494 380 494 269Q494 255 492 231L123 231Q127 153 168 105.50Q209 58 282 58Q328 58 361 76Q394 93 444 140M125 295L409 295Q406 361 369.50 399Q333 437 271 437Q211 437 173 400Q135 363 125 295M421 660L421 594L142 594L142 660L421 660Z"  horiz-adv-x="534" vert-adv-y="1000"  />

      
      <glyph glyph-name="uni0116" unicode="&#x0116;" d="M554 710L554 633L174 633L174 404L528 404L528 327L174 327L174 77L563 77L563 0L82 0L82 710L554 710M363 896L363 793L277 793L277 896L363 896Z"  horiz-adv-x="609" vert-adv-y="1000"  />

      
      <glyph glyph-name="uni0117" unicode="&#x0117;" d="M444 140L495 88Q442 32 393 9Q344-14 281-14Q170-14 103.50 56.50Q37 127 37 243Q37 359 101.50 432.50Q166 506 272 506Q377 506 435.50 443Q494 380 494 269Q494 255 492 231L123 231Q127 153 168 105.50Q209 58 282 58Q328 58 361 76Q394 93 444 140M125 295L409 295Q406 361 369.50 399Q333 437 271 437Q211 437 173 400Q135 363 125 295M324 692L324 589L238 589L238 692L324 692Z"  horiz-adv-x="534" vert-adv-y="1000"  />

      
      <glyph glyph-name="uni0118" unicode="&#x0118;" d="M483-110Q483-152 534-152Q550-152 561-149L561-203Q548-209 523-209Q476-209 448.50-187Q421-165 421-125Q421-58 493 0L82 0L82 710L554 710L554 633L174 633L174 404L528 404L528 327L174 327L174 77L563 77L563 0Q483-56 483-110Z"  horiz-adv-x="609" vert-adv-y="1000"  />

      
      <glyph glyph-name="uni0119" unicode="&#x0119;" d="M297-119Q297-62 344-7Q317-14 280-14Q169-14 103 56.50Q37 127 37 243Q37 359 101.50 432.50Q166 506 272 506Q377 506 435.50 443Q494 380 494 269Q494 255 492 231L122 231Q128 153 168.50 105.50Q209 58 281 58Q326 58 361 76Q394 93 444 140L495 88Q476 67 450 45Q361-37 361-105Q361-152 415-152Q432-152 442-149L442-204Q429-209 404-209Q355-209 326-185.50Q297-162 297-119M125 295L408 295Q406 361 369.50 399Q333 437 271 437Q211 437 173 400.50Q135 364 125 295Z"  horiz-adv-x="534" vert-adv-y="1000"  />

      
      <glyph glyph-name="uni011A" unicode="&#x011A;" d="M554 710L554 633L174 633L174 404L528 404L528 327L174 327L174 77L563 77L563 0L82 0L82 710L554 710M472 910L374 769L266 769L168 910L242 910L320 811L398 910L472 910Z"  horiz-adv-x="609" vert-adv-y="1000"  />

      
      <glyph glyph-name="uni011B" unicode="&#x011B;" d="M444 140L495 88Q442 32 393 9Q344-14 281-14Q170-14 103.50 56.50Q37 127 37 243Q37 359 101.50 432.50Q166 506 272 506Q377 506 435.50 443Q494 380 494 269Q494 255 492 231L123 231Q127 153 168 105.50Q209 58 282 58Q328 58 361 76Q394 93 444 140M125 295L409 295Q406 361 369.50 399Q333 437 271 437Q211 437 173 400Q135 363 125 295M434 706L336 565L228 565L130 706L204 706L282 607L360 706L434 706Z"  horiz-adv-x="534" vert-adv-y="1000"  />

      
      <glyph glyph-name="uni011E" unicode="&#x011E;" d="M362 294L362 372L675 372L675 0L603 0L596 90Q530-15 375-15Q220-15 131 87Q42 189 42 355Q42 519 135 622Q228 725 386 725Q471 725 540 692.50Q609 660 676 590L617 530Q554 593 503 618Q451 644 384 644Q273 644 204 564Q135 484 135 355Q135 223 201.50 144Q268 65 380 65Q474 65 532 119Q590 173 590 266L590 294L362 294M241 894L304 894Q305 861 326 841Q347 821 385 821Q423 821 443.50 840.50Q464 860 466 894L528 894Q528 834 488.50 798.50Q449 763 385 763Q320 763 280.50 798.50Q241 834 241 894Z"  horiz-adv-x="741" vert-adv-y="1000"  />

      
      <glyph glyph-name="uni011F" unicode="&#x011F;" d="M418 492L498 492L498 11Q498-84 438-138.50Q378-193 275-193Q155-193 52-120L95-57Q149-91 189-105.50Q229-120 274-120Q339-120 376-85.50Q413-51 413 18L413 85Q361 6 256 6Q162 6 101 76.50Q40 147 40 256Q40 365 101 435.50Q162 506 256 506Q366 506 418 419L418 492M375 128.50Q375 128.50 395 153.25Q415 178 415 256Q415 334 375 383.50Q335 433 270 433Q205 433 166.50 384.50Q128 336 128 256Q128 176 166.50 127.50Q205 79 270 79Q335 79 375 128.50M140 690L203 690Q204 657 225 637Q246 617 284 617Q322 617 342.50 636.50Q363 656 365 690L427 690Q427 630 387.50 594.50Q348 559 284 559Q219 559 179.50 594.50Q140 630 140 690Z"  horiz-adv-x="565" vert-adv-y="1000"  />

      
      <glyph glyph-name="uni0120" unicode="&#x0120;" d="M362 294L362 372L675 372L675 0L603 0L596 90Q530-15 375-15Q220-15 131 87Q42 189 42 355Q42 519 135 622Q228 725 386 725Q471 725 540 692.50Q609 660 676 590L617 530Q554 593 503 618Q451 644 384 644Q273 644 204 564Q135 484 135 355Q135 223 201.50 144Q268 65 380 65Q474 65 532 119Q590 173 590 266L590 294L362 294M428 896L428 793L342 793L342 896L428 896Z"  horiz-adv-x="741" vert-adv-y="1000"  />

      
      <glyph glyph-name="uni0121" unicode="&#x0121;" d="M418 492L498 492L498 11Q498-84 438-138.50Q378-193 275-193Q155-193 52-120L95-57Q149-91 189-105.50Q229-120 274-120Q339-120 376-85.50Q413-51 413 18L413 85Q361 6 256 6Q162 6 101 76.50Q40 147 40 256Q40 365 101 435.50Q162 506 256 506Q366 506 418 419L418 492M375 128.50Q375 128.50 395 153.25Q415 178 415 256Q415 334 375 383.50Q335 433 270 433Q205 433 166.50 384.50Q128 336 128 256Q128 176 166.50 127.50Q205 79 270 79Q335 79 375 128.50M326 692L326 589L240 589L240 692L326 692Z"  horiz-adv-x="565" vert-adv-y="1000"  />

      
      <glyph glyph-name="uni0122" unicode="&#x0122;" d="M362 294L362 372L675 372L675 0L603 0L596 90Q530-15 375-15Q220-15 131 87Q42 189 42 355Q42 519 135 622Q228 725 386 725Q471 725 540 692.50Q609 660 676 590L617 530Q554 593 503 618Q451 644 384 644Q273 644 204 564Q135 484 135 355Q135 223 201.50 144Q268 65 380 65Q474 65 532 119Q590 173 590 266L590 294L362 294M428-73L428-159L371-253L323-253L375-159L328-159L328-73L428-73Z"  horiz-adv-x="741" vert-adv-y="1000"  />

      
      <glyph glyph-name="uni0123" unicode="&#x0123;" d="M418 492L498 492L498 11Q498-84 438-138.50Q378-193 275-193Q155-193 52-120L95-57Q149-91 189-105.50Q229-120 274-120Q339-120 376-85.50Q413-51 413 18L413 85Q361 6 256 6Q162 6 101 76.50Q40 147 40 256Q40 365 101 435.50Q162 506 256 506Q366 506 418 419L418 492M375 128.50Q375 128.50 395 153.25Q415 178 415 256Q415 334 375 383.50Q335 433 270 433Q205 433 166.50 384.50Q128 336 128 256Q128 176 166.50 127.50Q205 79 270 79Q335 79 375 128.50M230 587L230 675L287 775L335 775L284 675L331 675L331 587L230 587Z"  horiz-adv-x="565" vert-adv-y="1000"  />

      
      <glyph glyph-name="uni0126" unicode="&#x0126;" d="M750 599L750 533L673 533L673 0L580 0L580 330L200 330L200 0L108 0L108 533L30 533L30 599L108 599L108 710L200 710L200 599L580 599L580 710L673 710L673 599L750 599M580 407L580 533L200 533L200 407L580 407Z"  horiz-adv-x="780" vert-adv-y="1000"  />

      
      <glyph glyph-name="uni0127" unicode="&#x0127;" d="M499 334L499 0L413 0L413 306Q413 366 384 397.50Q355 429 300 429Q248 429 210.50 392Q173 355 173 301L173 0L87 0L87 566L14 566L14 628L87 628L87 710L173 710L173 628L298 628L298 566L173 566L173 426Q221 503 324 503Q408 503 453.50 456.50Q499 410 499 334Z"  horiz-adv-x="565" vert-adv-y="1000"  />

      
      <glyph glyph-name="uni012A" unicode="&#x012A;" d="M181 710L181 0L89 0L89 710L181 710M275 864L275 798L-4 798L-4 864L275 864Z"  horiz-adv-x="270" vert-adv-y="1000"  />

      
      <glyph glyph-name="uni012B" unicode="&#x012B;" d="M153 492L153 0L67 0L67 492L153 492M250 660L250 594L-29 594L-29 660L250 660Z"  horiz-adv-x="220" vert-adv-y="1000"  />

      
      <glyph glyph-name="uni012E" unicode="&#x012E;" d="M102-110Q102-152 153-152Q168-152 179-149L179-203Q165-209 141-209Q94-209 66.50-187Q39-165 39-125Q39-58 111 0L89 0L89 710L181 710L181 0Q102-54 102-110Z"  horiz-adv-x="270" vert-adv-y="1000"  />

      
      <glyph glyph-name="uni012F" unicode="&#x012F;" d="M67 692L153 692L153 589L67 589L67 692M67 0L67 492L153 492L153 0Q73-56 73-110Q73-152 124-152Q140-152 151-149L151-203Q138-209 112-209Q66-209 38.50-186.50Q11-164 11-125Q11-58 83 0L67 0Z"  horiz-adv-x="220" vert-adv-y="1000"  />

      
      <glyph glyph-name="uni0130" unicode="&#x0130;" d="M181 710L181 0L89 0L89 710L181 710M178 896L178 793L92 793L92 896L178 896Z"  horiz-adv-x="270" vert-adv-y="1000"  />

      
      <glyph glyph-name="uni0131" unicode="&#x0131;" d="M153 492L153 0L67 0L67 492L153 492Z"  horiz-adv-x="220" vert-adv-y="1000"  />

      
      <glyph glyph-name="uni0132" unicode="&#x0132;" d="M181 710L181 0L89 0L89 710L181 710M655 710L655 183Q655-12 463-12Q371-12 282 35L314 107Q404 69 460 69Q563 69 563 191L563 710L655 710Z"  horiz-adv-x="732" vert-adv-y="1000"  />

      
      <glyph glyph-name="uni0133" unicode="&#x0133;" d="M153 492L153 0L67 0L67 492L153 492M153 692L153 589L67 589L67 692L153 692M227-121Q262-121 276-101.50Q290-82 290-38L290 492L376 492L376-38Q376-192 237-192Q190-192 142-177L159-111Q195-121 227-121M376 692L376 589L290 589L290 692L376 692Z"  horiz-adv-x="444" vert-adv-y="1000"  />

      
      <glyph glyph-name="uni0136" unicode="&#x0136;" d="M544 0L301 366L174 235L174 0L82 0L82 710L174 710L174 347L520 710L635 710L364 430L649 0L544 0M397-73L397-159L340-253L292-253L344-159L297-159L297-73L397-73Z"  horiz-adv-x="658" vert-adv-y="1000"  />

      
      <glyph glyph-name="uni0137" unicode="&#x0137;" d="M406 0L242 247L153 158L153 0L67 0L67 710L153 710L153 253L382 492L487 492L300 302L502 0L406 0M322-73L322-159L265-253L217-253L269-159L222-159L222-73L322-73Z"  horiz-adv-x="508" vert-adv-y="1000"  />

      
      <glyph glyph-name="uni0139" unicode="&#x0139;" d="M174 710L174 78L518 78L518 0L82 0L82 710L174 710M257 910L165 769L89 769L161 910L257 910Z"  horiz-adv-x="545" vert-adv-y="1000"  />

      
      <glyph glyph-name="uni013A" unicode="&#x013A;" d="M156 710L156 0L70 0L70 710L156 710M240 900L148 759L72 759L144 900L240 900Z"  horiz-adv-x="226" vert-adv-y="1000"  />

      
      <glyph glyph-name="uni013B" unicode="&#x013B;" d="M174 710L174 78L518 78L518 0L82 0L82 710L174 710M356-73L356-159L299-253L251-253L303-159L256-159L256-73L356-73Z"  horiz-adv-x="545" vert-adv-y="1000"  />

      
      <glyph glyph-name="uni013C" unicode="&#x013C;" d="M156 710L156 0L70 0L70 710L156 710M164-73L164-159L107-253L59-253L111-159L64-159L64-73L164-73Z"  horiz-adv-x="226" vert-adv-y="1000"  />

      
      <glyph glyph-name="uni013D" unicode="&#x013D;" d="M174 710L174 78L518 78L518 0L82 0L82 710L174 710M386 710L325 512L270 512L300 710L386 710Z"  horiz-adv-x="545" vert-adv-y="1000"  />

      
      <glyph glyph-name="uni013E" unicode="&#x013E;" d="M156 710L156 0L70 0L70 710L156 710M359 710L298 512L243 512L273 710L359 710Z"  horiz-adv-x="370" vert-adv-y="1000"  />

      
      <glyph glyph-name="uni013F" unicode="&#x013F;" d="M174 710L174 78L518 78L518 0L82 0L82 710L174 710M434 422L434 314L332 314L332 422L434 422Z"  horiz-adv-x="533" vert-adv-y="1000"  />

      
      <glyph glyph-name="uni0140" unicode="&#x0140;" d="M156 710L156 0L70 0L70 710L156 710M357 367L357 259L255 259L255 367L357 367Z"  horiz-adv-x="396" vert-adv-y="1000"  />

      
      <glyph glyph-name="uni0141" unicode="&#x0141;" d="M216 78L560 78L560 0L124 0L124 298L27 244L27 324L124 378L124 710L216 710L216 425L357 503L357 424L216 345L216 78Z"  horiz-adv-x="587" vert-adv-y="1000"  />

      
      <glyph glyph-name="uni0142" unicode="&#x0142;" d="M305 496L305 421L217 369L217 0L131 0L131 319L37 264L37 339L131 394L131 710L217 710L217 444L305 496Z"  horiz-adv-x="342" vert-adv-y="1000"  />

      
      <glyph glyph-name="uni0143" unicode="&#x0143;" d="M560 710L650 710L650 0L548 0L338 323Q230 485 167 594Q172 432 172 319L172 0L82 0L82 710L185 710L398 382L424 342Q529 178 565 117Q560 275 560 386L560 710M502 910L410 769L334 769L406 910L502 910Z"  horiz-adv-x="732" vert-adv-y="1000"  />

      
      <glyph glyph-name="uni0144" unicode="&#x0144;" d="M479 337L479 0L393 0L393 310Q393 370 364 401.50Q335 433 280 433Q227 433 190 396Q153 360 153 305L153 0L67 0L67 492L148 492L148 429Q196 506 303 506Q387 506 433 459Q479 412 479 337M401 706L309 565L233 565L305 706L401 706Z"  horiz-adv-x="545" vert-adv-y="1000"  />

      
      <glyph glyph-name="uni0145" unicode="&#x0145;" d="M560 710L650 710L650 0L548 0L338 323Q230 485 167 594Q172 432 172 319L172 0L82 0L82 710L185 710L398 382L424 342Q529 178 565 117Q560 275 560 386L560 710M418-73L418-159L361-253L313-253L365-159L318-159L318-73L418-73Z"  horiz-adv-x="732" vert-adv-y="1000"  />

      
      <glyph glyph-name="uni0146" unicode="&#x0146;" d="M479 337L479 0L393 0L393 310Q393 370 364 401.50Q335 433 280 433Q227 433 190 396Q153 360 153 305L153 0L67 0L67 492L148 492L148 429Q196 506 303 506Q387 506 433 459Q479 412 479 337M321-73L321-159L264-253L216-253L268-159L221-159L221-73L321-73Z"  horiz-adv-x="545" vert-adv-y="1000"  />

      
      <glyph glyph-name="uni0147" unicode="&#x0147;" d="M560 710L650 710L650 0L548 0L338 323Q230 485 167 594Q172 432 172 319L172 0L82 0L82 710L185 710L398 382L424 342Q529 178 565 117Q560 275 560 386L560 710M526 910L428 769L320 769L222 910L296 910L374 811L452 910L526 910Z"  horiz-adv-x="732" vert-adv-y="1000"  />

      
      <glyph glyph-name="uni0148" unicode="&#x0148;" d="M479 337L479 0L393 0L393 310Q393 370 364 401.50Q335 433 280 433Q227 433 190 396Q153 360 153 305L153 0L67 0L67 492L148 492L148 429Q196 506 303 506Q387 506 433 459Q479 412 479 337M425 706L327 565L219 565L121 706L195 706L273 607L351 706L425 706Z"  horiz-adv-x="545" vert-adv-y="1000"  />

      
      <glyph glyph-name="uni014A" unicode="&#x014A;" d="M560 710L650 710L650-44Q650-197 507-197Q457-197 400-179L418-107Q466-121 495-121Q531-121 547.50-101Q564-81 564-39L564-26L338 323Q226 493 168 593Q172 490 172 319L172 0L82 0L82 710L185 710L398 382L423 343Q513 204 565 116Q560 274 560 386L560 710Z"  horiz-adv-x="732" vert-adv-y="1000"  />

      
      <glyph glyph-name="uni014B" unicode="&#x014B;" d="M479 337L479-38Q479-192 340-192Q294-192 244-177L262-111Q298-121 330-121Q365-121 379-101.50Q393-82 393-38L393 310Q393 370 364 401.50Q335 433 280 433Q227 433 190 396Q153 360 153 305L153 0L67 0L67 492L148 492L148 429Q196 506 303 506Q387 506 433 459Q479 412 479 337Z"  horiz-adv-x="546" vert-adv-y="1000"  />

      
      <glyph glyph-name="uni014C" unicode="&#x014C;" d="M624 621.50Q624 621.50 670 569.25Q716 517 716 355Q716 193 624 88.50Q532-16 379-16Q226-16 134 88.50Q42 193 42 355Q42 517 134 621.50Q226 726 379 726Q532 726 624 621.50M136 355Q136 227 203.50 146Q271 65 379 65Q488 65 555 145.50Q622 226 622 355Q622 483 555 564Q488 645 379 645Q271 645 203.50 563.50Q136 482 136 355M519 864L519 798L240 798L240 864L519 864Z"  horiz-adv-x="758" vert-adv-y="1000"  />

      
      <glyph glyph-name="uni014D" unicode="&#x014D;" d="M456 433.50Q456 433.50 490 397.25Q524 361 524 246Q524 131 456 58.50Q388-14 281-14Q174-14 105.50 58.50Q37 131 37 246Q37 361 105.50 433.50Q174 506 281 506Q388 506 456 433.50M167.50 382Q167.50 382 146.25 356Q125 330 125 246Q125 162 167.50 110Q210 58 281 58Q352 58 394 109.50Q436 161 436 246Q436 331 394 382.50Q352 434 281 434Q210 434 167.50 382M418 660L418 594L139 594L139 660L418 660Z"  horiz-adv-x="561" vert-adv-y="1000"  />

      
      <glyph glyph-name="uni0150" unicode="&#x0150;" d="M624 621.50Q624 621.50 670 569.25Q716 517 716 355Q716 193 624 88.50Q532-16 379-16Q226-16 134 88.50Q42 193 42 355Q42 517 134 621.50Q226 726 379 726Q532 726 624 621.50M136 355Q136 227 203.50 146Q271 65 379 65Q488 65 555 145.50Q622 226 622 355Q622 483 555 564Q488 645 379 645Q271 645 203.50 563.50Q136 482 136 355M429 913L336 769L270 769L342 913L429 913M584 913L490 769L423 769L497 913L584 913Z"  horiz-adv-x="758" vert-adv-y="1000"  />

      
      <glyph glyph-name="uni0151" unicode="&#x0151;" d="M456 433.50Q456 433.50 490 397.25Q524 361 524 246Q524 131 456 58.50Q388-14 281-14Q174-14 105.50 58.50Q37 131 37 246Q37 361 105.50 433.50Q174 506 281 506Q388 506 456 433.50M167.50 382Q167.50 382 146.25 356Q125 330 125 246Q125 162 167.50 110Q210 58 281 58Q352 58 394 109.50Q436 161 436 246Q436 331 394 382.50Q352 434 281 434Q210 434 167.50 382M329 709L236 565L170 565L242 709L329 709M484 709L390 565L323 565L397 709L484 709Z"  horiz-adv-x="561" vert-adv-y="1000"  />

      
      <glyph glyph-name="uni0152" unicode="&#x0152;" d="M715 77L1104 77L1104 0L622 0L622 105Q536-16 378-16Q225-16 133.50 88Q42 192 42 355Q42 518 133.50 622Q225 726 378 726Q536 726 622 605L622 710L1095 710L1095 633L715 633L715 404L1069 404L1069 327L715 327L715 77M622 355Q622 483 555 564Q488 645 379 645Q271 645 203.50 563.50Q136 482 136 355Q136 227 203.50 146Q271 65 379 65Q488 65 555 145.50Q622 226 622 355Z"  horiz-adv-x="1150" vert-adv-y="1000"  />

      
      <glyph glyph-name="uni0153" unicode="&#x0153;" d="M845 140L896 88Q845 33 794.50 9.50Q744-14 682-14Q544-14 480 91Q449 42 396.50 14Q344-14 281-14Q174-14 105.50 58.50Q37 131 37 246Q37 361 105.50 433.50Q174 506 281 506Q415 506 480 400Q543 506 673 506Q778 506 836.50 443Q895 380 895 269L893 230L524 230Q528 153 569 105.50Q610 58 683 58Q728 58 763 76Q798 94 845 140M527 293L811 293Q809 360 772.50 399Q736 438 673 438Q613 438 575 400Q537 362 527 293M394 109.50Q394 109.50 415 135.25Q436 161 436 246Q436 331 394 382.50Q352 434 281 434Q210 434 167.50 382Q125 330 125 246Q125 162 167.50 110Q210 58 281 58Q352 58 394 109.50Z"  horiz-adv-x="936" vert-adv-y="1000"  />

      
      <glyph glyph-name="uni0154" unicode="&#x0154;" d="M635 0L530 0L340 285L174 285L174 0L82 0L82 710L380 710Q482 710 546 653Q610 596 610 498Q610 415 564.50 360.50Q519 306 440 291L635 0M174 633L174 362L365 362Q437 362 478 397.50Q519 433 519 498Q519 563 478 598Q437 633 364 633L174 633M459 910L367 769L291 769L363 910L459 910Z"  horiz-adv-x="668" vert-adv-y="1000"  />

      
      <glyph glyph-name="uni0155" unicode="&#x0155;" d="M348 483L332 411Q298 421 268 421Q216 421 184.50 378.50Q153 336 153 264L153 0L67 0L67 492L148 492L148 418Q187 498 270 498Q308 498 348 483M337 706L245 565L169 565L241 706L337 706Z"  horiz-adv-x="358" vert-adv-y="1000"  />

      
      <glyph glyph-name="uni0156" unicode="&#x0156;" d="M635 0L530 0L340 285L174 285L174 0L82 0L82 710L380 710Q482 710 546 653Q610 596 610 498Q610 415 564.50 360.50Q519 306 440 291L635 0M174 633L174 362L365 362Q437 362 478 397.50Q519 433 519 498Q519 563 478 598Q437 633 364 633L174 633M387-73L387-159L330-253L282-253L334-159L287-159L287-73L387-73Z"  horiz-adv-x="668" vert-adv-y="1000"  />

      
      <glyph glyph-name="uni0157" unicode="&#x0157;" d="M348 483L332 411Q298 421 268 421Q216 421 184.50 378.50Q153 336 153 264L153 0L67 0L67 492L148 492L148 418Q187 498 270 498Q308 498 348 483M160-73L160-159L103-253L55-253L107-159L60-159L60-73L160-73Z"  horiz-adv-x="358" vert-adv-y="1000"  />

      
      <glyph glyph-name="uni0158" unicode="&#x0158;" d="M635 0L530 0L340 285L174 285L174 0L82 0L82 710L380 710Q482 710 546 653Q610 596 610 498Q610 415 564.50 360.50Q519 306 440 291L635 0M174 633L174 362L365 362Q437 362 478 397.50Q519 433 519 498Q519 563 478 598Q437 633 364 633L174 633M483 910L385 769L277 769L179 910L253 910L331 811L409 910L483 910Z"  horiz-adv-x="668" vert-adv-y="1000"  />

      
      <glyph glyph-name="uni0159" unicode="&#x0159;" d="M348 483L332 411Q298 421 268 421Q216 421 184.50 378.50Q153 336 153 264L153 0L67 0L67 492L148 492L148 418Q187 498 270 498Q308 498 348 483M361 706L263 565L155 565L57 706L131 706L209 607L287 706L361 706Z"  horiz-adv-x="358" vert-adv-y="1000"  />

      
      <glyph glyph-name="uni015A" unicode="&#x015A;" d="M576 621L522 557Q466 606 417.50 626Q369 646 308 646Q236 646 190.50 613.50Q145 581 145 530Q145 494 166 472Q186 452 222.50 439.50Q259 427 340 408Q476 377 531 332.50Q586 288 586 204Q586 106 512.50 45Q439-16 324-16Q239-16 171 12Q103 40 25 107L80 172Q156 108 209 86Q263 64 325 64Q400 64 447 100.50Q494 137 494 199Q494 240 471 263Q450 286 410 300Q366 316 296 331Q158 362 106.50 403.50Q55 445 55 528Q55 614 128 669.50Q201 725 308 725Q388 725 450 700.50Q512 676 576 621M442 910L350 769L274 769L346 910L442 910Z"  horiz-adv-x="629" vert-adv-y="1000"  />

      
      <glyph glyph-name="uni015B" unicode="&#x015B;" d="M437 434L390 376Q345 411 311.50 423.50Q278 436 235 436Q186 436 156.50 415.50Q127 395 127 363Q131 332 153 320.50Q175 309 259 290Q361 266 403 233.50Q445 201 445 139Q445 70 391 28Q337-14 248-14Q181-14 129.50 6.50Q78 27 21 78L72 134Q126 89 164 73Q202 57 249 57Q298 57 329.50 78Q361 99 361 135Q361 170 331 187Q301 204 223 221Q118 245 82 271.50Q46 298 44 360Q44 425 97 465.50Q150 506 235 506Q296 506 342 489.50Q388 473 437 434M373 706L281 565L205 565L277 706L373 706Z"  horiz-adv-x="479" vert-adv-y="1000"  />

      
      <glyph glyph-name="uni015E" unicode="&#x015E;" d="M330-16L306-67Q353-65 383-86.50Q413-108 413-145Q413-185 383.50-210Q354-235 308-235Q256-235 200-199L225-158Q272-185 306-185Q330-185 344.50-174.50Q359-164 359-146Q359-129 343-119Q327-109 302-109Q285-109 273-112L245-85L278-14Q151-2 25 107L80 172Q156 108 209 86Q263 64 325 64Q400 64 447 100.50Q494 137 494 199Q494 240 471 263Q450 286 410 300Q366 316 296 331Q158 362 106.50 403.50Q55 445 55 528Q55 614 128 669.50Q201 725 308 725Q388 725 450 700.50Q512 676 576 621L522 557Q466 606 417.50 626Q369 646 308 646Q236 646 190.50 613.50Q145 581 145 530Q145 494 166 472Q186 452 222.50 439.50Q259 427 340 408Q476 377 531 332.50Q586 288 586 204Q586 108 514.50 47Q443-14 330-16Z"  horiz-adv-x="629" vert-adv-y="1000"  />

      
      <glyph glyph-name="uni015F" unicode="&#x015F;" d="M251-14L227-67Q274-65 304-86.50Q334-108 334-145Q334-185 304.50-210Q275-235 228-235Q176-235 120-199L146-158Q193-185 227-185Q251-185 265.50-174.50Q280-164 280-146Q280-129 264-119Q248-109 223-109Q206-109 194-112L166-85L200-11Q108 0 21 78L72 134Q126 89 164 73Q202 57 249 57Q298 57 329.50 78Q361 99 361 135Q361 170 331 187Q301 204 223 221Q118 245 82 271.50Q46 298 44 360Q44 425 97 465.50Q150 506 235 506Q296 506 342 489.50Q388 473 437 434L390 376Q345 411 311.50 423.50Q278 436 235 436Q186 436 156.50 415.50Q127 395 127 363Q131 332 153 320.50Q175 309 259 290Q361 266 403 233.50Q445 201 445 139Q445 71 392 29Q339-13 251-14Z"  horiz-adv-x="479" vert-adv-y="1000"  />

      
      <glyph glyph-name="uni0160" unicode="&#x0160;" d="M576 621L522 557Q466 606 417.50 626Q369 646 308 646Q236 646 190.50 613.50Q145 581 145 530Q145 494 166 472Q186 452 222.50 439.50Q259 427 340 408Q476 377 531 332.50Q586 288 586 204Q586 106 512.50 45Q439-16 324-16Q239-16 171 12Q103 40 25 107L80 172Q156 108 209 86Q263 64 325 64Q400 64 447 100.50Q494 137 494 199Q494 240 471 263Q450 286 410 300Q366 316 296 331Q158 362 106.50 403.50Q55 445 55 528Q55 614 128 669.50Q201 725 308 725Q388 725 450 700.50Q512 676 576 621M466 910L368 769L260 769L162 910L236 910L314 811L392 910L466 910Z"  horiz-adv-x="629" vert-adv-y="1000"  />

      
      <glyph glyph-name="uni0161" unicode="&#x0161;" d="M437 434L390 376Q345 411 311.50 423.50Q278 436 235 436Q186 436 156.50 415.50Q127 395 127 363Q131 332 153 320.50Q175 309 259 290Q361 266 403 233.50Q445 201 445 139Q445 70 391 28Q337-14 248-14Q181-14 129.50 6.50Q78 27 21 78L72 134Q126 89 164 73Q202 57 249 57Q298 57 329.50 78Q361 99 361 135Q361 170 331 187Q301 204 223 221Q118 245 82 271.50Q46 298 44 360Q44 425 97 465.50Q150 506 235 506Q296 506 342 489.50Q388 473 437 434M396 706L298 565L190 565L92 706L166 706L244 607L322 706L396 706Z"  horiz-adv-x="479" vert-adv-y="1000"  />

      
      <glyph glyph-name="uni0162" unicode="&#x0162;" d="M348 0L327 0L296-67Q343-65 373-86.50Q403-108 403-145Q403-185 373.50-210Q344-235 297-235Q244-235 189-199L214-158Q264-185 296-185Q320-185 334.50-174.50Q349-164 349-146Q349-129 332.50-119Q316-109 291-109Q275-109 263-112L235-85L274 0L255 0L255 632L31 632L31 710L572 710L572 632L348 632L348 0Z"  horiz-adv-x="603" vert-adv-y="1000"  />

      
      <glyph glyph-name="uni0163" unicode="&#x0163;" d="M324-145Q324-185 294.50-210Q265-235 218-235Q166-235 110-199L135-158Q185-185 217-185Q241-185 255.50-174.50Q270-164 270-146Q270-129 253.50-119Q237-109 212-109Q196-109 184-112L156-85L193-5Q110 12 110 114L110 427L18 427L18 492L110 492L110 657L196 657L196 492L329 492L329 427L196 427L196 124Q196 91 209.50 77.50Q223 64 254 64Q282 64 325 76L338 8Q294-8 244-9L217-67Q264-65 294-86.50Q324-108 324-145Z"  horiz-adv-x="356" vert-adv-y="1000"  />

      
      <glyph glyph-name="uni0164" unicode="&#x0164;" d="M572 710L572 632L348 632L348 0L255 0L255 632L31 632L31 710L572 710M454 910L356 769L248 769L150 910L224 910L302 811L380 910L454 910Z"  horiz-adv-x="603" vert-adv-y="1000"  />

      
      <glyph glyph-name="uni0165" unicode="&#x0165;" d="M325 76L338 8Q290-9 237-9Q170-9 140 21.50Q110 52 110 114L110 427L18 427L18 492L110 492L110 657L196 657L196 492L329 492L329 427L196 427L196 124Q196 91 209.50 77.50Q223 64 254 64Q282 64 325 76M391 773L330 575L275 575L305 773L391 773Z"  horiz-adv-x="356" vert-adv-y="1000"  />

      
      <glyph glyph-name="uni0166" unicode="&#x0166;" d="M570 632L347 632L347 416L475 416L475 350L347 350L347 0L254 0L254 350L128 350L128 416L254 416L254 632L31 632L31 710L570 710L570 632Z"  horiz-adv-x="601" vert-adv-y="1000"  />

      
      <glyph glyph-name="uni0167" unicode="&#x0167;" d="M325 76L338 8Q290-9 237-9Q170-9 140 21.50Q110 52 110 114L110 228L18 228L18 295L110 295L110 427L18 427L18 492L110 492L110 657L196 657L196 492L329 492L329 427L196 427L196 295L329 295L329 228L196 228L196 124Q196 91 209.50 77.50Q223 64 254 64Q282 64 325 76Z"  horiz-adv-x="356" vert-adv-y="1000"  />

      
      <glyph glyph-name="uni016A" unicode="&#x016A;" d="M612 710L612 226Q612 108 544 46.50Q476-15 344-15Q213-15 145 46.50Q77 108 77 226L77 710L169 710L169 231Q169 150 213.50 108Q258 66 344 66Q430 66 474.50 108Q519 150 519 231L519 710L612 710M484 864L484 798L205 798L205 864L484 864Z"  horiz-adv-x="688" vert-adv-y="1000"  />

      
      <glyph glyph-name="uni016B" unicode="&#x016B;" d="M384 492L470 492L470 0L390 0L390 61Q345-14 241-14Q154-14 110 29Q66 72 66 147L66 492L152 492L152 168Q152 60 255 60Q313 60 348.50 95Q384 130 384 192L384 492M400 660L400 594L121 594L121 660L400 660Z"  horiz-adv-x="537" vert-adv-y="1000"  />

      
      <glyph glyph-name="uni016E" unicode="&#x016E;" d="M612 710L612 226Q612 108 544 46.50Q476-15 344-15Q213-15 145 46.50Q77 108 77 226L77 710L169 710L169 231Q169 150 213.50 108Q258 66 344 66Q430 66 474.50 108Q519 150 519 231L519 710L612 710M451 834Q451 792 419 760Q388 730 344 730Q299 730 268 760.50Q237 791 237 834Q237 878 268 908Q299 938 344 938Q388 938 419 907Q451 877 451 834M301 878Q301 878 292.50 869.50Q284 861 284 834Q284 807 301 790Q318 773 344 773Q370 773 386.50 790Q403 807 403 834Q403 861 386.50 878Q370 895 344 895Q318 895 301 878Z"  horiz-adv-x="688" vert-adv-y="1000"  />

      
      <glyph glyph-name="uni016F" unicode="&#x016F;" d="M384 492L470 492L470 0L390 0L390 61Q345-14 241-14Q154-14 110 29Q66 72 66 147L66 492L152 492L152 168Q152 60 255 60Q313 60 348.50 95Q384 130 384 192L384 492M368 663Q368 621 336 589Q304 559 261 559Q216 559 185 589.50Q154 620 154 663Q154 707 185 737Q216 767 261 767Q305 767 336 736Q368 706 368 663M218 707Q218 707 209.50 698.50Q201 690 201 663Q201 636 218 619Q235 602 261 602Q287 602 303.50 619Q320 636 320 663Q320 690 303.50 707Q287 724 261 724Q235 724 218 707Z"  horiz-adv-x="537" vert-adv-y="1000"  />

      
      <glyph glyph-name="uni0170" unicode="&#x0170;" d="M612 710L612 226Q612 108 544 46.50Q476-15 344-15Q213-15 145 46.50Q77 108 77 226L77 710L169 710L169 231Q169 150 213.50 108Q258 66 344 66Q430 66 474.50 108Q519 150 519 231L519 710L612 710M394 913L301 769L235 769L307 913L394 913M549 913L455 769L388 769L462 913L549 913Z"  horiz-adv-x="688" vert-adv-y="1000"  />

      
      <glyph glyph-name="uni0171" unicode="&#x0171;" d="M384 492L470 492L470 0L390 0L390 61Q345-14 241-14Q154-14 110 29Q66 72 66 147L66 492L152 492L152 168Q152 60 255 60Q313 60 348.50 95Q384 130 384 192L384 492M310 709L217 565L151 565L223 709L310 709M465 709L371 565L304 565L378 709L465 709Z"  horiz-adv-x="537" vert-adv-y="1000"  />

      
      </font>
</defs>
</svg>
